# Blender v2.80 (sub 75) OBJ File: 'testScene.blend'
# www.blender.org
o Door_Right_Cube.003
v 47.325989 0.780797 33.670891
v 47.325989 21.660995 33.670891
v 47.325989 0.780797 43.207016
v 47.325989 19.261349 43.207016
v 48.683128 0.780797 33.670891
v 48.683128 21.660995 33.670891
v 48.683128 0.780797 43.207016
v 48.683128 19.261349 43.207016
vt 0.375000 0.000000
vt 0.375000 0.250000
vt 0.625000 0.250000
vt 0.375000 0.500000
vt 0.625000 0.500000
vt 0.375000 0.750000
vt 0.625000 0.750000
vt 0.375000 1.000000
vt 0.125000 0.500000
vt 0.125000 0.750000
vt 0.875000 0.500000
vt 0.625000 0.000000
vt 0.625000 1.000000
vt 0.875000 0.750000
vn -1.0000 0.0000 0.0000
vn 0.0000 0.0000 1.0000
vn 1.0000 0.0000 0.0000
vn 0.0000 0.0000 -1.0000
vn 0.0000 -1.0000 0.0000
vn 0.0000 0.9698 0.2440
s off
f 1/1/1 3/2/1 4/3/1
f 4/3/2 3/2/2 7/4/2
f 8/5/3 7/4/3 5/6/3
f 6/7/4 5/6/4 1/8/4
f 7/4/5 3/9/5 1/10/5
f 4/11/6 8/5/6 6/7/6
f 1/1/1 4/3/1 2/12/1
f 4/3/2 7/4/2 8/5/2
f 8/5/3 5/6/3 6/7/3
f 6/7/4 1/8/4 2/13/4
f 7/4/5 1/10/5 5/6/5
f 4/11/6 6/7/6 2/14/6
