# Blender v2.80 (sub 75) OBJ File: 'testScene.blend'
# www.blender.org
o Grate_Cube.034
v -41.037201 5.613102 37.499832
v -40.984440 5.795248 37.460258
v -41.037201 5.613102 37.291306
v -40.984440 5.795248 37.330875
v -40.855057 5.665866 37.460258
v -40.855057 5.795248 37.460258
v -40.855057 5.665866 37.330875
v -40.855057 5.795248 37.330875
v -41.009811 5.792868 34.256149
v -41.049732 5.630667 34.131325
v -40.856060 5.641860 34.054840
v -40.816139 5.804061 34.179661
v -40.828674 5.821630 35.332973
v -41.037201 5.821630 35.332973
v -41.037201 5.613102 35.332973
v -40.828674 5.613102 35.332973
v -41.037201 5.821630 35.531517
v -41.037201 5.613102 35.531517
v -40.828674 5.821630 35.531517
v -40.828674 5.613102 35.531517
v -40.828674 9.304066 35.531517
v -40.828674 9.304066 35.332973
v -41.037201 9.304066 35.332973
v -41.037201 9.304066 35.531517
v -40.878803 3.539507 35.481007
v -40.852535 3.655846 35.421165
v -40.987072 3.666837 35.383480
v -41.013340 3.550498 35.443317
v -40.981125 5.821630 36.189182
v -41.037201 5.613102 36.189182
v -40.884750 5.821630 36.189182
v -40.828674 5.613102 36.189182
v -41.037201 5.821630 36.399113
v -41.037201 5.613102 36.399113
v -40.828674 5.821630 36.399113
v -40.828674 5.613102 36.399113
v -40.828674 8.602995 36.399113
v -40.884750 8.602995 36.189182
v -40.981125 8.602995 36.189182
v -41.037201 8.602995 36.399113
v -40.828674 2.538080 36.399113
v -40.828674 2.538080 36.189182
v -41.037201 2.538080 36.189182
v -41.037201 2.538080 36.399113
v -40.812832 7.765974 35.331360
v -40.828674 7.881010 35.531517
v -41.021339 7.767318 35.333996
v -41.037201 7.881010 35.531517
v -40.828674 7.689718 35.531517
v -41.037201 7.689718 35.531517
v -40.828674 7.689718 35.332973
v -41.037201 7.689718 35.332973
v -40.821762 7.727583 31.824785
v -40.847694 7.896450 31.738739
v -41.018181 7.674280 31.779375
v -41.044113 7.843147 31.693329
v -40.844536 7.810573 32.800705
v -41.053043 7.811917 32.803341
v -41.037201 7.689718 32.801727
v -40.828674 7.689718 32.801727
v -40.828674 7.881010 32.561543
v -41.037201 7.881010 32.561543
v -41.037201 7.689718 32.561543
v -40.828674 7.689718 32.561543
v -41.037201 9.824332 32.561543
v -41.037201 9.824332 32.801727
v -40.828674 9.824332 32.801727
v -40.828674 9.824332 32.561543
v -40.828674 5.821630 34.717419
v -40.828674 5.613102 34.717419
v -41.037201 5.821630 34.717419
v -41.037201 5.613102 34.717419
v -40.828674 5.821630 34.519363
v -40.828674 5.613102 34.519363
v -41.037201 5.821630 34.519363
v -41.037201 5.613102 34.519363
v -40.981880 7.384586 34.562744
v -40.993404 7.413642 34.662510
v -40.883999 7.417484 34.674030
v -40.872471 7.388429 34.574265
v -40.828674 3.255033 36.365181
v -40.828674 3.255033 36.223114
v -41.037201 3.288777 36.189182
v -41.037201 3.288777 36.399113
v -40.828674 3.113747 36.365181
v -41.037201 3.080003 36.399113
v -40.828674 3.113747 36.223114
v -41.037201 3.080003 36.189182
v -40.863651 3.136269 34.504162
v -40.872902 3.239698 34.426273
v -40.992973 3.129085 34.509983
v -41.002224 3.232514 34.432091
v -41.037201 3.080003 35.525585
v -40.828674 3.080003 35.525585
v -40.862419 3.288777 35.491779
v -41.003456 3.288777 35.491779
v -41.037201 3.080003 35.316696
v -40.828674 3.080003 35.316696
v -40.862419 3.288777 35.350502
v -41.003456 3.288777 35.350502
v -40.875271 2.044201 35.363373
v -40.875271 2.044201 35.478909
v -40.990604 2.044201 35.478909
v -40.990604 2.044201 35.363373
v -41.037201 5.668272 28.954163
v -40.828674 5.668272 28.954163
v -41.037201 5.860088 28.954163
v -40.828674 5.860088 28.954163
v -40.872272 5.819370 30.072252
v -40.995148 5.809577 30.057543
v -40.870728 5.718786 30.126289
v -40.993603 5.708993 30.111580
v -40.828674 5.860088 29.620281
v -40.828674 5.668272 29.620281
v -41.037201 5.860088 29.620281
v -41.037201 5.668272 29.620281
v -41.037201 5.860088 29.808641
v -41.037201 5.668272 29.808641
v -40.828674 5.860088 29.808641
v -40.828674 5.668272 29.808641
v -40.871952 7.734193 29.769548
v -40.871952 7.734193 29.659372
v -40.993923 7.734193 29.659372
v -40.993923 7.734193 29.769548
v -40.881691 4.926065 29.744534
v -40.877602 4.853840 29.680305
v -40.984184 4.844176 29.684385
v -40.988274 4.916400 29.748611
vt 0.017855 0.593885
vt 0.043025 0.601478
vt 0.024132 0.612797
vt 0.519055 0.834347
vt 0.498915 0.861539
vt 0.497064 0.833541
vt 0.494424 0.211005
vt 0.489461 0.192276
vt 0.501273 0.199152
vt 0.723741 0.839265
vt 0.710083 0.852962
vt 0.704477 0.833541
vt 0.182622 0.854578
vt 0.163166 0.836661
vt 0.182622 0.832490
vt 0.199092 0.931151
vt 0.185439 0.944855
vt 0.185438 0.931151
vt 0.688818 0.853637
vt 0.704477 0.839983
vt 0.704477 0.860078
vt 0.294177 0.451027
vt 0.308295 0.420294
vt 0.328386 0.428419
vt 0.760763 0.343687
vt 0.781682 0.379214
vt 0.749725 0.362791
vt 0.137818 0.918667
vt 0.160638 0.959981
vt 0.140089 0.967881
vt 0.983594 1.028687
vt 1.000801 0.822659
vt 1.005564 1.028687
vt 0.668363 0.289898
vt 0.675450 0.319553
vt 0.657325 0.309002
vt 0.191187 0.487013
vt 0.220460 0.495187
vt 0.202471 0.505963
vt 0.548317 0.497672
vt 0.491116 0.638596
vt 0.472991 0.628044
vt 0.418767 0.832490
vt 0.402685 0.902149
vt 0.408597 0.832490
vt 0.142883 0.541659
vt 0.608324 0.254948
vt 0.597216 0.274143
vt 0.452882 0.833541
vt 0.430898 0.903208
vt 0.430898 0.833545
vt 0.649993 0.855628
vt 0.629041 0.833543
vt 0.649993 0.833541
vt 0.115867 0.994884
vt 0.137818 0.832627
vt 0.137818 0.995144
vt 0.917539 0.691125
vt 0.939544 0.540463
vt 0.939544 0.691118
vt 0.079751 0.299871
vt 0.020736 0.159777
vt 0.103797 0.299418
vt 0.988856 0.808484
vt 0.986402 0.821219
vt 1.027563 1.027894
vt 1.013382 0.809443
vt 1.027563 0.808484
vt 0.321194 0.674590
vt 0.322070 0.688516
vt 0.782009 0.116488
vt 0.686488 0.300449
vt 0.724554 0.016617
vt 0.771092 -0.026769
vt 0.737524 0.024167
vt 0.578122 0.262896
vt 0.112579 0.534104
vt 0.123863 0.553053
vt 0.983594 0.540463
vt 0.961588 0.834926
vt 0.961588 0.540471
vt 0.182622 0.832490
vt 0.204628 0.832490
vt 0.160638 0.949087
vt 0.163166 0.850365
vt 0.585051 0.855776
vt 0.601137 0.833541
vt 0.607057 0.855776
vt -0.018911 0.269733
vt 0.131593 0.522484
vt 0.430898 0.517710
vt 1.037925 0.540463
vt 1.027772 0.834404
vt 1.027771 0.540504
vt 0.607057 0.855782
vt 0.629041 0.833541
vt 0.629041 0.855777
vt 0.497064 0.890805
vt 0.475094 0.833630
vt 0.497064 0.833541
vt 0.961588 0.808635
vt 0.939583 0.866015
vt 0.939544 0.804952
vt 0.279953 0.771850
vt 0.290257 0.832490
vt 0.260932 0.783244
vt 0.090102 0.317254
vt 0.108091 0.306478
vt 0.917539 0.711377
vt 0.939544 0.711369
vt 0.270608 0.924497
vt 0.249875 0.837533
vt 0.270608 0.832490
vt 0.558443 0.480146
vt 0.572699 0.497744
vt 0.049990 0.832490
vt 0.028020 1.029976
vt 0.028020 0.832579
vt 0.917539 0.909146
vt 0.939544 0.909138
vt 0.209176 0.476237
vt 0.670186 0.855267
vt 0.688818 0.834948
vt 0.688818 0.856674
vt 0.348845 0.138671
vt 0.430898 0.114927
vt 0.359196 0.156054
vt 0.894836 0.623325
vt 0.917539 0.545243
vt 0.916819 0.623266
vt 0.819447 0.655504
vt 0.894836 0.680590
vt 0.893720 0.700675
vt 0.807646 0.625215
vt 0.801322 0.636367
vt 0.895555 0.916884
vt 0.916882 0.648707
vt 0.917539 0.916825
vt 0.330677 0.158137
vt 0.337434 0.169090
vt 1.005598 0.808484
vt 0.983594 0.540463
vt 1.005598 0.540472
vt 0.829573 0.637979
vt -0.015955 0.832490
vt -0.037925 1.037925
vt -0.037925 0.832579
vt 0.563045 0.858981
vt 0.585051 0.833543
vt 0.585051 0.858983
vt 1.036613 0.250928
vt 1.014608 0.463955
vt 1.014606 0.250895
vt 0.221927 -0.024889
vt 0.243689 -0.037925
vt 0.694656 0.820777
vt 0.160638 0.832701
vt 0.138021 0.897689
vt 0.138655 0.832490
vt 0.731645 0.352266
vt 0.276232 0.461776
vt 0.452882 0.898740
vt 0.474888 0.833543
vt 0.474888 0.898742
vt 0.160004 0.897900
vt 0.742682 0.333162
vt 0.264949 0.442827
vt 0.071872 1.001590
vt 0.089253 0.832857
vt 0.093878 1.001590
vt 0.769825 0.845273
vt 0.780453 0.833541
vt 0.780453 0.845197
vt 0.661724 0.503486
vt 0.651063 0.500865
vt 0.115848 0.997643
vt 0.100632 0.832811
vt 0.112231 0.832490
vt 0.194383 0.292179
vt 0.282893 0.432077
vt 0.249635 0.764272
vt 0.939583 0.540471
vt 0.961588 0.786533
vt 0.939544 0.789994
vt 1.027771 0.540463
vt 1.005598 0.786139
vt 1.005801 0.540533
vt 0.589160 0.243792
vt 0.730045 0.037111
vt 0.268656 0.752878
vt 0.336550 0.918597
vt 0.322868 0.832559
vt 0.336550 0.832490
vt 0.717076 0.029561
vt 0.735265 0.833541
vt 0.723741 0.847939
vt 0.723741 0.834272
vt 0.807878 0.086630
vt 0.893211 0.117637
vt 0.894836 0.131267
vt 0.070613 0.924936
vt 0.058208 1.022613
vt 0.055734 0.925304
vt 0.344641 0.707221
vt 0.429436 0.676071
vt 0.359005 0.724494
vt 0.340078 0.735832
vt 0.049990 0.836587
vt 0.070245 0.909977
vt 0.055366 0.910344
vt 0.802987 0.058144
vt 0.794980 0.079122
vt 0.358695 0.836101
vt 0.336697 0.906391
vt 0.336550 0.832490
vt 0.331840 0.714890
vt 0.822057 0.069245
vt 0.862018 -0.034194
vt 0.872565 -0.028054
vt 0.746892 0.845781
vt 0.759051 0.833541
vt 0.759051 0.845779
vt 0.400351 0.827238
vt 0.204628 0.942285
vt 0.221844 0.832490
vt 0.226598 0.942285
vt 0.248603 0.832490
vt 0.231423 0.941985
vt 0.226598 0.832490
vt 0.358696 0.903045
vt 0.380701 0.832492
vt 0.380701 0.903047
vt 0.894898 0.648766
vt 0.769825 0.846576
vt 0.759051 0.834255
vt 0.769825 0.833541
vt 0.649993 0.833541
vt 0.670186 0.855674
vt 0.649993 0.855592
vt 0.942920 0.040465
vt 1.015844 0.034634
vt 0.950048 0.059478
vt 0.948824 0.442309
vt 1.007492 0.486166
vt 0.941710 0.461319
vt 0.402685 0.832490
vt 0.380701 0.903053
vt 0.380701 0.832495
vt 0.901300 0.530920
vt 0.923108 0.454293
vt 0.930223 0.435283
vt 0.924315 0.047491
vt 0.931442 0.066504
vt 1.004961 0.250895
vt 0.545431 0.835110
vt 0.563045 0.861415
vt 0.541039 0.861415
vt 0.903911 0.072387
vt 0.903898 0.430895
vt 0.894836 0.438844
vt 0.536254 0.835104
vt 0.519055 0.867212
vt 0.523253 0.833541
vt 0.735265 0.833542
vt 0.746892 0.846460
vt 0.735265 0.846461
vt 0.006050 1.030232
vt 0.024492 0.832490
vt 0.028020 1.030232
vt -0.015955 1.031033
vt 0.001509 0.832490
vt 0.006050 1.031033
vt 1.003726 0.250895
vt 1.014606 0.255005
vt 0.297838 0.839913
vt 0.309597 0.833528
vt 0.309090 0.840950
vt 0.903093 -0.028363
vt 0.906752 -0.037925
vt 0.292578 0.920043
vt 0.275744 0.833542
vt 0.286953 0.832490
vt 0.292578 0.919302
vt 0.314584 0.919302
vt 0.029578 0.586862
vt 0.519055 0.870372
vt 0.482613 0.204130
vt 0.723736 0.852962
vt 0.199093 0.944855
vt 0.688818 0.833541
vt 0.801613 0.371052
vt 0.159800 0.918877
vt 0.424691 0.902149
vt 0.452882 0.903203
vt 0.629041 0.855630
vt 0.115848 0.832490
vt 0.917539 0.540471
vt 0.002747 0.170553
vt 1.003255 0.809924
vt 1.005564 1.027374
vt 0.782672 0.102692
vt 0.751928 -0.037925
vt 0.983594 0.834918
vt 0.182622 0.949082
vt 0.590967 0.833541
vt -0.037925 0.281352
vt 0.449992 0.528957
vt 1.037925 0.834363
vt 0.607057 0.833545
vt 0.474888 0.894209
vt 0.961588 0.866007
vt 0.309277 0.821096
vt 0.248603 0.924678
vt 0.576568 0.490698
vt 0.049990 1.029887
vt 0.670186 0.833541
vt 0.429559 0.095015
vt 0.896564 0.540463
vt 0.983594 0.808475
vt -0.015955 1.037837
vt 0.563045 0.833541
vt 1.036613 0.464121
vt 0.716582 0.833541
vt 0.452882 0.833541
vt 0.077721 0.832490
vt 0.769825 0.833617
vt 0.093878 0.997643
vt 0.183772 0.295000
vt 0.961588 0.540463
vt 1.027771 0.789884
vt 0.314584 0.917723
vt 0.735265 0.847208
vt 0.071872 1.022884
vt 0.430898 0.662481
vt 0.071872 0.832490
vt 0.358681 0.906391
vt 0.746892 0.833543
vt 0.410819 0.820967
vt 0.209693 0.832490
vt 0.243594 0.941985
vt 0.358696 0.832490
vt 0.759051 0.847289
vt 0.670186 0.833622
vt 1.008716 0.015621
vt 1.014606 0.467156
vt 0.402685 0.903048
vt 0.904976 0.540463
vt 1.015844 0.246786
vt 0.558406 0.833541
vt 0.894836 0.064429
vt 0.541039 0.867212
vt 0.746892 0.833541
vt 0.011641 0.832490
vt -0.011363 0.832490
vt 0.298346 0.832490
vt 0.270608 0.920043
vn -0.9605 0.2783 0.0000
vn 0.0000 0.9941 -0.1086
vn 1.0000 0.0000 0.0000
vn 0.1639 0.1639 0.9728
vn 0.2782 -0.9605 0.0000
vn 0.0000 1.0000 0.0000
vn -0.3174 0.6261 -0.7122
vn -0.9771 0.2089 0.0410
vn 0.9993 0.0000 0.0369
vn 0.0325 -0.9974 -0.0637
vn 0.0000 -0.0259 -0.9997
vn -1.0000 0.0000 0.0000
vn 0.9624 0.2588 0.0821
vn 0.0000 -1.0000 0.0000
vn -0.0126 0.0009 -0.9999
vn 0.0000 0.0000 1.0000
vn -0.9972 -0.0103 -0.0741
vn 0.1993 -0.4834 -0.8524
vn -0.2710 -0.0169 0.9624
vn -0.9200 0.0061 -0.3919
vn 0.9999 -0.0122 0.0000
vn 0.9351 0.2515 -0.2498
vn 0.0000 0.9996 0.0283
vn 0.9996 0.0000 0.0283
vn 0.2653 -0.9622 0.0620
vn -0.9661 0.0000 -0.2581
vn 0.9661 0.0000 -0.2581
vn 0.0000 0.0000 -1.0000
vn 0.1511 0.0582 0.9868
vn -0.9797 0.2003 0.0000
vn -0.2530 0.9666 -0.0401
vn 0.9969 0.0000 0.0789
vn 0.3072 -0.3942 -0.8662
vn -0.9997 0.0000 -0.0243
vn 0.0000 -0.9987 -0.0513
vn 0.9897 0.1416 -0.0202
vn 0.9915 0.1300 -0.0101
vn -0.9917 -0.1285 0.0000
vn 0.0067 0.9998 0.0175
vn 0.9978 0.0000 0.0662
vn -0.9917 -0.1286 0.0000
vn 0.0127 0.0007 0.9999
vn 0.9979 -0.0079 0.0639
vn 0.0000 0.0345 0.9994
vn -0.0042 0.9600 -0.2801
vn 0.9939 0.0373 0.1040
vn 0.1033 0.0377 -0.9939
vn -0.9994 0.0354 0.0000
vn 0.1584 -0.0142 0.9873
vn 0.1606 0.0000 0.9870
vn 0.0521 -0.9961 -0.0712
vn -0.0026 -0.6017 -0.7987
vn 0.9969 0.0775 -0.0154
vn 0.0000 0.9981 -0.0611
vn -0.9851 0.1663 -0.0439
vn 0.9874 0.1534 -0.0385
vn 0.1520 -0.9872 0.0478
vn -0.9872 0.1595 0.0000
vn 0.9872 0.1596 0.0000
vn 0.9990 -0.0449 0.0000
vn -0.9990 -0.0449 0.0000
vn 0.0000 -0.0450 -0.9990
vn 0.0000 -0.0450 0.9990
vn -0.1417 0.4668 0.8729
vn -0.9979 -0.0649 0.0000
vn 0.9997 0.0231 0.0000
vn 0.0000 0.9800 0.1989
vn 0.9866 0.0000 0.1632
vn -0.9892 0.0572 0.1347
vn 0.0588 -0.9846 0.1644
vn 0.0000 0.0209 -0.9998
vn 0.0000 0.0209 0.9998
vn -0.9997 0.0231 0.0000
vn 0.0884 -0.6591 0.7468
vn 0.9915 -0.0507 0.1201
vn -0.0309 -0.0795 -0.9964
vn 0.0000 -0.0861 0.9963
vn -0.9605 0.2782 0.0000
vn -0.0790 0.9954 -0.0544
vn 0.2783 -0.9605 0.0000
vn -0.3175 0.6262 -0.7121
vn -0.9946 0.0000 -0.1035
vn 0.9798 -0.1878 -0.0694
vn 0.0000 -0.9990 -0.0452
vn 0.2659 -0.0466 -0.9629
vn 0.9973 0.0102 0.0731
vn -0.9624 0.2588 0.0821
vn 0.0000 -0.0007 -1.0000
vn 0.0000 -0.0427 0.9991
vn -0.9997 -0.0257 0.0000
vn 0.9361 -0.0312 0.3503
vn -0.9351 0.2515 -0.2498
vn -0.9622 0.2653 0.0620
vn 0.1511 0.0582 -0.9868
vn -0.9968 0.0000 -0.0800
vn 0.0000 0.9998 0.0188
vn 0.9791 -0.2034 0.0000
vn -0.9894 -0.1447 0.0142
vn 0.2564 -0.9662 0.0253
vn 1.0000 0.0000 0.0094
vn 0.9791 -0.2033 0.0000
vn -0.9797 0.1999 0.0158
vn 0.9915 0.1302 0.0000
vn -0.9979 0.0000 -0.0654
vn 0.0000 -0.0005 1.0000
vn -0.9980 0.0078 -0.0632
vn -0.1055 0.0234 0.9941
vn 0.9996 0.0279 0.0000
vn 0.0000 0.0277 -0.9996
vn -0.9923 0.0231 -0.1214
vn 0.1583 -0.0142 -0.9873
vn 0.0000 -0.9982 -0.0607
vn -0.0025 -0.6017 -0.7987
vn 0.9859 0.1644 -0.0311
vn -0.0577 0.9970 -0.0523
vn -0.9963 -0.0861 0.0039
vn -0.9873 0.1518 -0.0478
vn 0.1535 0.9874 0.0385
vn -0.9872 0.1596 0.0000
vn 0.9872 0.1595 0.0000
vn -0.9979 -0.0636 0.0080
vn -0.0949 0.9861 0.1366
vn 0.9898 0.0788 0.1185
vn -0.9860 0.0000 0.1666
vn 0.0000 -0.9911 0.1332
vn 0.9975 -0.0712 0.0000
vn 0.0000 -0.0735 -0.9973
vn 0.0450 -0.0766 0.9960
s off
f 2/1/1 3/2/1 1/3/1
f 73/4/2 9/5/2 75/6/2
f 8/7/3 5/8/3 7/9/3
f 5/10/4 2/11/4 1/12/4
f 3/13/5 5/14/5 1/15/5
f 4/16/6 6/17/6 8/18/6
f 9/19/7 11/20/7 10/21/7
f 76/22/8 9/23/8 10/24/8
f 74/25/9 12/26/9 73/27/9
f 74/28/10 10/29/10 11/30/10
f 16/31/11 27/32/11 15/33/11
f 20/34/3 13/35/3 19/36/3
f 17/37/12 15/38/12 18/39/12
f 46/40/3 22/41/3 21/42/3
f 31/43/6 17/44/6 29/45/6
f 30/46/12 17/37/12 18/39/12
f 32/47/13 19/36/13 31/48/13
f 30/49/14 20/50/14 32/51/14
f 21/52/6 23/53/6 24/54/6
f 47/55/15 22/56/15 45/57/15
f 46/58/16 24/59/16 48/60/16
f 48/61/17 23/62/17 47/63/17
f 25/64/18 27/32/18 26/65/18
f 20/66/19 28/67/19 25/68/19
f 18/39/20 27/69/20 28/70/20
f 20/34/21 26/71/21 16/72/21
f 85/73/3 42/74/3 87/75/3
f 35/76/22 32/47/22 31/48/22
f 33/77/12 30/46/12 34/78/12
f 35/79/16 40/80/16 33/81/16
f 4/16/23 35/82/23 33/83/23
f 3/2/12 33/77/12 34/78/12
f 7/9/24 35/76/24 8/7/24
f 3/13/25 36/84/25 7/85/25
f 37/86/6 39/87/6 40/88/6
f 33/77/26 39/89/26 29/90/26
f 31/48/27 37/91/27 35/76/27
f 29/92/28 38/93/28 31/94/28
f 44/95/14 42/96/14 41/97/14
f 88/98/28 42/99/28 43/100/28
f 86/101/29 41/102/29 85/103/29
f 88/104/12 44/105/12 86/106/12
f 50/107/30 47/63/30 52/108/30
f 49/109/16 48/60/16 50/110/16
f 62/111/31 54/112/31 56/113/31
f 49/114/32 45/115/32 46/40/32
f 13/35/3 49/114/3 19/36/3
f 14/116/28 51/117/28 13/118/28
f 19/119/16 50/110/16 17/120/16
f 17/37/12 52/108/12 14/121/12
f 53/122/33 56/123/33 54/124/33
f 62/125/34 55/126/34 63/127/34
f 63/128/35 53/129/35 64/130/35
f 61/131/36 53/132/36 54/133/36
f 45/115/37 60/134/37 57/135/37
f 52/136/14 60/137/14 51/138/14
f 52/108/38 58/139/38 59/140/38
f 47/141/39 57/142/39 58/143/39
f 57/135/40 64/144/40 61/131/40
f 58/139/41 63/127/41 59/140/41
f 62/145/28 68/146/28 61/147/28
f 67/148/6 65/149/6 66/150/6
f 57/151/42 66/152/42 58/153/42
f 62/125/12 66/154/12 65/155/12
f 61/131/43 67/156/43 57/135/43
f 15/157/14 70/158/14 16/159/14
f 16/72/3 69/160/3 13/35/3
f 14/121/12 72/161/12 15/38/12
f 13/162/6 71/163/6 14/164/6
f 72/165/14 74/28/14 70/158/14
f 70/166/3 73/27/3 69/160/3
f 71/167/12 76/22/12 72/161/12
f 69/168/44 78/169/44 71/170/44
f 78/171/45 80/172/45 77/173/45
f 69/160/46 80/174/46 79/175/46
f 73/176/47 77/177/47 80/178/47
f 71/167/48 77/179/48 75/180/48
f 30/46/12 84/181/12 34/78/12
f 36/182/49 84/183/49 81/184/49
f 32/185/28 83/186/28 30/187/28
f 36/188/3 82/189/3 32/47/3
f 83/190/12 86/106/12 84/181/12
f 84/183/50 85/103/50 81/184/50
f 98/191/51 91/192/51 89/193/51
f 81/194/3 87/75/3 82/189/3
f 92/195/52 89/196/52 91/197/52
f 99/198/53 89/199/53 90/200/53
f 99/201/54 92/202/54 100/203/54
f 100/204/55 91/205/55 97/206/55
f 83/190/12 93/207/12 88/104/12
f 83/208/6 95/209/6 96/210/6
f 82/189/56 94/211/56 95/212/56
f 88/213/57 94/214/57 87/215/57
f 96/216/58 97/206/58 93/207/58
f 95/209/6 100/203/6 96/210/6
f 95/212/59 98/217/59 99/198/59
f 98/217/60 102/218/60 101/219/60
f 103/220/14 101/221/14 102/222/14
f 97/206/61 103/223/61 93/207/61
f 98/224/62 104/225/62 97/226/62
f 93/227/63 102/228/63 94/229/63
f 113/230/6 107/231/6 115/232/6
f 63/128/14 60/137/14 59/233/14
f 111/234/64 110/235/64 112/236/64
f 108/237/28 105/238/28 107/239/28
f 114/240/3 108/241/3 113/242/3
f 115/243/12 105/244/12 116/245/12
f 116/246/14 106/247/14 114/248/14
f 116/245/65 128/249/65 118/250/65
f 117/251/12 116/245/12 118/250/12
f 120/252/3 113/242/3 119/253/3
f 113/242/66 121/254/66 119/253/66
f 110/255/67 119/256/67 117/257/67
f 109/258/68 120/252/68 119/253/68
f 110/259/69 118/250/69 112/260/69
f 112/261/70 120/262/70 111/263/70
f 121/264/6 123/265/6 124/266/6
f 115/267/71 122/268/71 113/269/71
f 119/270/72 124/271/72 117/272/72
f 115/243/73 124/273/73 123/274/73
f 128/275/74 126/276/74 125/277/74
f 114/240/75 125/278/75 126/279/75
f 116/280/76 126/281/76 127/282/76
f 118/283/77 125/277/77 120/284/77
f 2/1/78 4/285/78 3/2/78
f 73/4/79 12/286/79 9/5/79
f 8/7/3 6/287/3 5/8/3
f 5/10/16 6/288/16 2/11/16
f 3/13/80 7/85/80 5/14/80
f 4/16/6 2/289/6 6/17/6
f 9/19/81 12/290/81 11/20/81
f 76/22/82 75/180/82 9/23/82
f 74/25/83 11/291/83 12/26/83
f 74/28/84 76/292/84 10/29/84
f 16/31/85 26/65/85 27/32/85
f 20/34/3 16/72/3 13/35/3
f 17/37/12 14/121/12 15/38/12
f 46/40/86 45/115/86 22/41/86
f 31/43/6 19/293/6 17/44/6
f 30/46/87 29/90/87 17/37/87
f 32/47/3 20/34/3 19/36/3
f 30/49/14 18/294/14 20/50/14
f 21/52/6 22/295/6 23/53/6
f 47/55/88 23/296/88 22/56/88
f 46/58/16 21/297/16 24/59/16
f 48/61/12 24/298/12 23/62/12
f 25/64/18 28/299/18 27/32/18
f 20/66/89 18/300/89 28/67/89
f 18/39/90 15/38/90 27/69/90
f 20/34/91 25/301/91 26/71/91
f 85/73/3 41/302/3 42/74/3
f 35/76/3 36/188/3 32/47/3
f 33/77/92 29/90/92 30/46/92
f 35/79/16 37/303/16 40/80/16
f 4/16/23 8/18/23 35/82/23
f 3/2/93 4/285/93 33/77/93
f 7/9/24 36/188/24 35/76/24
f 3/13/14 34/304/14 36/84/14
f 37/86/6 38/305/6 39/87/6
f 33/77/26 40/306/26 39/89/26
f 31/48/27 38/307/27 37/91/27
f 29/92/28 39/308/28 38/93/28
f 44/95/14 43/309/14 42/96/14
f 88/98/94 87/310/94 42/99/94
f 86/101/16 44/311/16 41/102/16
f 88/104/12 43/312/12 44/105/12
f 50/107/95 48/61/95 47/63/95
f 49/109/16 46/58/16 48/60/16
f 62/111/96 61/313/96 54/112/96
f 49/114/97 51/314/97 45/115/97
f 13/35/3 51/314/3 49/114/3
f 14/116/28 52/315/28 51/117/28
f 19/119/16 49/109/16 50/110/16
f 17/37/12 50/107/12 52/108/12
f 53/122/33 55/316/33 56/123/33
f 62/125/98 56/317/98 55/126/98
f 63/128/99 55/318/99 53/129/99
f 61/131/100 64/144/100 53/132/100
f 45/115/101 51/314/101 60/134/101
f 52/136/14 59/233/14 60/137/14
f 52/108/102 47/63/102 58/139/102
f 47/141/39 45/319/39 57/142/39
f 57/135/103 60/134/103 64/144/103
f 58/139/104 62/125/104 63/127/104
f 62/145/28 65/320/28 68/146/28
f 67/148/6 68/321/6 65/149/6
f 57/151/105 67/322/105 66/152/105
f 62/125/106 58/139/106 66/154/106
f 61/131/3 68/323/3 67/156/3
f 15/157/14 72/165/14 70/158/14
f 16/72/3 70/166/3 69/160/3
f 14/121/12 71/167/12 72/161/12
f 13/162/6 69/324/6 71/163/6
f 72/165/14 76/292/14 74/28/14
f 70/166/3 74/25/3 73/27/3
f 71/167/12 75/180/12 76/22/12
f 69/168/107 79/325/107 78/169/107
f 78/171/45 79/326/45 80/172/45
f 69/160/108 73/27/108 80/174/108
f 73/176/109 75/327/109 77/177/109
f 71/167/110 78/328/110 77/179/110
f 30/46/12 83/190/12 84/181/12
f 36/182/16 34/329/16 84/183/16
f 32/185/111 82/330/111 83/186/111
f 36/188/3 81/194/3 82/189/3
f 83/190/12 88/104/12 86/106/12
f 84/183/50 86/101/50 85/103/50
f 98/191/112 97/331/112 91/192/112
f 81/194/3 85/73/3 87/75/3
f 92/195/113 90/332/113 89/196/113
f 99/198/114 98/217/114 89/199/114
f 99/201/115 90/333/115 92/202/115
f 100/204/116 92/334/116 91/205/116
f 83/190/117 96/216/117 93/207/117
f 83/208/118 82/335/118 95/209/118
f 82/189/3 87/75/3 94/211/3
f 88/213/14 93/336/14 94/214/14
f 96/216/119 100/204/119 97/206/119
f 95/209/6 99/201/6 100/203/6
f 95/212/120 94/211/120 98/217/120
f 98/217/60 94/211/60 102/218/60
f 103/220/14 104/337/14 101/221/14
f 97/206/61 104/338/61 103/223/61
f 98/224/62 101/339/62 104/225/62
f 93/227/63 103/340/63 102/228/63
f 113/230/6 108/341/6 107/231/6
f 63/128/14 64/130/14 60/137/14
f 111/234/64 109/342/64 110/235/64
f 108/237/28 106/343/28 105/238/28
f 114/240/3 106/344/3 108/241/3
f 115/243/12 107/345/12 105/244/12
f 116/246/14 105/346/14 106/247/14
f 116/245/121 127/347/121 128/249/121
f 117/251/12 115/243/12 116/245/12
f 120/252/3 114/240/3 113/242/3
f 113/242/66 122/348/66 121/254/66
f 110/255/122 109/349/122 119/256/122
f 109/258/123 111/350/123 120/252/123
f 110/259/124 117/251/124 118/250/124
f 112/261/125 118/351/125 120/262/125
f 121/264/6 122/352/6 123/265/6
f 115/267/71 123/353/71 122/268/71
f 119/270/72 121/354/72 124/271/72
f 115/243/73 117/251/73 124/273/73
f 128/275/74 127/355/74 126/276/74
f 114/240/126 120/252/126 125/278/126
f 116/280/127 114/356/127 126/281/127
f 118/283/128 128/275/128 125/277/128
