# Blender v2.80 (sub 75) OBJ File: 'testScene.blend'
# www.blender.org
o Lever_Cube.038
v 45.865993 17.992807 9.324209
v 46.005646 18.063066 9.324209
v 45.865993 17.992807 9.167879
v 46.005646 18.063066 9.167879
v 45.923576 17.878351 9.324209
v 46.063229 17.948610 9.324209
v 45.923576 17.878351 9.167879
v 46.063229 17.948610 9.167879
v 45.468060 18.783772 9.167879
v 45.468060 18.783772 9.324209
v 45.607712 18.854031 9.324209
v 45.607712 18.854031 9.167879
v 45.430614 18.764929 9.125958
v 45.430614 18.764929 9.366130
v 45.645164 18.872868 9.366130
v 45.645164 18.872868 9.125958
v 45.370026 18.885357 9.125958
v 45.370026 18.885357 9.366130
v 45.584576 18.993296 9.366130
v 45.584576 18.993296 9.125958
v 45.431358 18.916216 9.194617
v 45.431358 18.916216 9.297471
v 45.523239 18.962440 9.297471
v 45.523239 18.962440 9.194617
v 45.374474 19.029282 9.194617
v 45.374474 19.029282 9.297471
v 45.466354 19.075506 9.297471
v 45.466354 19.075506 9.194617
v 45.312935 18.998314 9.125724
v 45.312935 18.998314 9.366364
v 45.527905 19.106464 9.366364
v 45.527905 19.106464 9.125724
v 45.234985 19.153255 9.125724
v 45.234985 19.153255 9.366364
v 45.449955 19.261404 9.366364
v 45.449955 19.261404 9.125724
vt 0.243638 0.126411
vt 0.121819 1.000000
vt 0.121819 0.126411
vt 0.000000 0.126411
vt 0.121819 0.000000
vt 0.121819 0.126411
vt 0.839338 0.709788
vt 0.961157 0.583377
vt 0.961157 0.709788
vt 0.365458 1.000000
vt 0.487277 0.873589
vt 0.487277 1.000000
vt 0.243638 0.000000
vt 0.365457 0.126411
vt 0.243638 0.126411
vt 0.121819 0.000000
vt 0.243638 0.000000
vt 0.519944 0.743686
vt 0.674428 0.777583
vt 0.487277 0.777583
vt 0.243638 1.000000
vt 0.000000 1.000000
vt 0.365458 0.873589
vt 0.487277 0.000000
vt 0.615454 0.971789
vt 0.487277 0.777583
vt 0.615454 0.777583
vt 0.519944 0.617274
vt 0.674428 0.583377
vt 0.641763 0.617274
vt 0.487277 0.583377
vt 0.641763 0.743686
vt 0.487277 0.389171
vt 0.540780 0.527859
vt 0.487277 0.583377
vt 0.802605 0.972548
vt 0.674428 0.778342
vt 0.802605 0.778342
vt 0.967515 0.583377
vt 0.839338 0.389171
vt 0.967515 0.389171
vt 0.802605 0.778342
vt 0.930782 0.972548
vt 0.919851 0.000000
vt 0.839703 0.124877
vt 0.839703 0.000000
vt 0.674428 0.583377
vt 0.620928 0.444689
vt 0.674428 0.389171
vt 0.540780 0.444689
vt 0.620928 0.527859
vt 0.540962 0.333463
vt 0.487277 0.194585
vt 0.540962 0.250293
vt 0.919851 0.124877
vt 0.839703 0.249753
vt 0.839703 0.124877
vt 1.000000 0.000000
vt 0.919852 0.124877
vt 0.919852 0.000000
vt 0.919851 0.249753
vt 0.839703 0.374630
vt 0.839703 0.249753
vt 0.839703 0.389171
vt 0.674793 0.194585
vt 0.839703 0.194585
vt 0.621111 0.250293
vt 0.674793 0.389171
vt 0.621111 0.333463
vt 0.487277 0.389171
vt 0.674793 0.194585
vt 0.487277 0.194585
vt 0.674793 0.000000
vt 0.674793 0.194585
vt 0.839338 0.583756
vt 0.674428 0.389171
vt 0.839338 0.389171
vt 0.674793 0.000000
vt 0.839703 0.194585
vt 0.839338 0.778342
vt 0.674428 0.583756
vt 0.839338 0.583756
vt 0.243638 1.000000
vt 0.000000 0.000000
vt 0.839338 0.583377
vt 0.365457 0.000000
vt 0.365458 1.000000
vt 0.121819 1.000000
vt 0.365458 0.000000
vt 0.487277 0.971789
vt 0.674428 0.972548
vt 0.839338 0.583377
vt 0.930782 0.778342
vt 0.919852 0.124877
vt 0.919852 0.249753
vt 1.000000 0.124877
vt 0.919852 0.374630
vt 0.674793 0.389171
vt 0.487277 0.000000
vt 0.674428 0.583756
vt 0.839703 0.000000
vt 0.674428 0.778342
vn 0.8933 0.4494 0.0000
vn 0.0000 0.0000 -1.0000
vn 0.4494 -0.8933 0.0000
vn 0.0000 0.0000 1.0000
vn -0.8933 -0.4494 0.0000
vn 0.4494 -0.8933 0.0001
vn 0.8933 0.4495 0.0000
vn 0.4494 -0.8933 -0.0001
vn 0.4493 -0.8934 0.0000
vn 0.4496 -0.8932 0.0000
vn -0.4494 0.8933 0.0000
vn -0.4495 0.8933 0.0000
vn 0.4495 -0.8933 0.0000
vn -0.8933 -0.4495 0.0000
vn 0.4494 -0.8934 0.0000
s off
f 4/1/1 11/2/1 2/3/1
f 4/4/2 7/5/2 3/6/2
f 8/7/3 5/8/3 7/9/3
f 6/10/4 1/11/4 5/12/4
f 7/13/5 1/14/5 3/15/5
f 4/1/1 6/16/1 8/17/1
f 12/18/6 13/19/6 16/20/6
f 1/14/5 9/21/5 3/15/5
f 3/6/2 12/22/2 4/4/2
f 2/23/4 10/24/4 1/11/4
f 16/25/7 19/26/7 15/27/7
f 11/28/8 14/29/8 10/30/8
f 12/18/9 15/31/9 11/28/9
f 10/30/10 13/19/10 9/32/10
f 20/33/11 23/34/11 19/35/11
f 14/36/5 17/37/5 13/38/5
f 13/39/2 20/40/2 16/41/2
f 15/42/4 18/43/4 14/36/4
f 21/44/2 28/45/2 24/46/2
f 18/47/12 21/48/12 17/49/12
f 17/49/11 24/50/11 20/33/11
f 18/47/11 23/34/11 22/51/11
f 28/52/9 31/53/9 27/54/9
f 23/55/4 26/56/4 22/57/4
f 24/58/1 27/59/1 23/60/1
f 22/61/5 25/62/5 21/63/5
f 30/64/5 33/65/5 29/66/5
f 26/67/13 29/68/13 25/69/13
f 28/52/6 29/68/6 32/70/6
f 27/54/8 30/71/8 26/67/8
f 35/72/11 33/73/11 34/74/11
f 29/75/2 36/76/2 32/77/2
f 31/78/4 34/79/4 30/71/4
f 32/80/1 35/81/1 31/82/1
f 4/1/1 12/83/1 11/2/1
f 4/4/2 8/84/2 7/5/2
f 8/7/3 6/85/3 5/8/3
f 6/10/4 2/23/4 1/11/4
f 7/13/14 5/86/14 1/14/14
f 4/1/7 2/3/7 6/16/7
f 12/18/6 9/32/6 13/19/6
f 1/14/5 10/87/5 9/21/5
f 3/6/2 9/88/2 12/22/2
f 2/23/4 11/89/4 10/24/4
f 16/25/1 20/90/1 19/26/1
f 11/28/8 15/31/8 14/29/8
f 12/18/9 16/20/9 15/31/9
f 10/30/13 14/29/13 13/19/13
f 20/33/11 24/50/11 23/34/11
f 14/36/5 18/91/5 17/37/5
f 13/39/2 17/92/2 20/40/2
f 15/42/4 19/93/4 18/43/4
f 21/44/2 25/94/2 28/45/2
f 18/47/11 22/51/11 21/48/11
f 17/49/11 21/48/11 24/50/11
f 18/47/11 19/35/11 23/34/11
f 28/52/15 32/70/15 31/53/15
f 23/55/4 27/95/4 26/56/4
f 24/58/1 28/96/1 27/59/1
f 22/61/5 26/97/5 25/62/5
f 30/64/5 34/98/5 33/65/5
f 26/67/13 30/71/13 29/68/13
f 28/52/6 25/69/6 29/68/6
f 27/54/8 31/53/8 30/71/8
f 35/72/11 36/99/11 33/73/11
f 29/75/2 33/100/2 36/76/2
f 31/78/4 35/101/4 34/79/4
f 32/80/1 36/102/1 35/81/1
