# Blender v2.80 (sub 75) OBJ File: 'nonEuclidianScene.blend'
# www.blender.org
o Bench_Root_Cube.087
v 31.243961 -2.288538 -9.358381
v 30.941189 -0.325445 -10.507925
v 30.941189 -2.325445 -12.507925
v 30.941189 -0.325445 -12.507925
v 32.941189 -2.325445 -10.507925
v 32.941189 -0.325445 -10.507925
v 33.269207 -2.283551 -11.392247
v 32.941189 -0.325445 -12.507925
v -34.526340 -0.357287 5.612541
v -34.526340 -0.235870 5.612541
v -34.526340 -0.367591 -14.459341
v -34.526340 -0.277436 -14.459341
v 34.620148 -0.347750 5.612543
v 34.620148 -0.279120 5.612543
v 34.620148 -0.347750 -14.459341
v 34.620148 -0.229135 -14.459341
v -35.006901 -0.379017 -10.250269
v -34.526340 -0.235870 -10.463825
v 34.606750 -0.375092 -10.300964
v 34.620148 -0.166261 -10.463825
v -35.006901 -0.379017 -0.489030
v 34.620148 -0.229135 -0.702586
v -34.526340 -0.235870 -0.702586
v 34.620148 -0.368059 -0.702586
v -30.542461 -0.407449 -14.515201
v -30.542461 -0.116201 -14.515201
v -30.530231 -0.411112 5.612543
v -30.530231 -0.155756 5.612543
v -29.876534 -0.189766 -11.140432
v -30.916172 -0.487714 -10.164392
v -29.876534 -0.189766 -1.379191
v -30.916172 -0.487714 -0.403152
v 20.705816 -0.104060 -14.542640
v 19.490946 -0.411112 5.612543
v 20.705816 -0.069987 -10.547125
v 18.342297 -0.210970 -0.419864
v 19.490946 -0.349409 -14.459342
v 18.342297 -0.210970 5.895267
v 19.500019 -0.380837 -10.479622
v 19.490946 -0.411112 -0.702585
v -7.789734 -0.333552 -14.489799
v -8.305412 -0.180864 5.741114
v -9.189747 -0.363667 -10.419724
v -9.189747 -0.363667 -0.658484
v -7.237270 -0.138291 -14.527679
v -7.783066 -0.411112 5.612543
v -6.632912 -0.103951 -10.859703
v -7.707726 -0.168063 -0.932014
v -4.676048 -0.086514 -14.529050
v -5.283169 -0.411112 5.612543
v -4.086262 -0.094262 -10.066604
v -4.918266 -0.126423 0.200421
v -5.289227 -0.430676 -14.487008
v -3.899963 -0.220954 6.347467
v -5.914188 -0.492432 -10.060275
v -5.909863 -0.463843 -0.446102
v 34.620148 -0.177917 5.438843
v 34.620148 -0.198477 6.358891
v 34.620148 2.396736 8.759607
v 33.963200 2.182128 9.475920
v -34.526340 -0.179532 5.511112
v -34.526340 -0.191153 6.031160
v -34.526340 2.393376 8.909950
v -34.526340 2.373291 9.808760
v 35.100704 1.859132 7.960283
v 34.620148 1.862267 9.081154
v -34.512943 1.864966 7.998613
v -34.526340 1.850480 9.608622
v 35.100704 0.607891 6.307381
v -34.526340 0.609885 7.479282
v 34.174824 0.256270 7.601164
v -34.526340 0.633410 6.426582
v 30.636265 2.410646 8.467039
v 30.636265 2.361328 10.673983
v 30.624033 -0.168803 5.030987
v 30.624033 -0.212043 6.965960
v 29.970337 1.941191 9.545080
v 28.562853 1.452570 5.712091
v 30.425745 0.833865 7.727800
v 31.009977 0.615288 5.469183
v -20.524166 2.554912 10.593611
v -19.397144 -0.168803 5.030987
v -20.612011 1.844856 10.352245
v -18.200142 1.019168 7.886097
v -19.397144 2.393657 8.897379
v -18.248493 -0.238935 6.499699
v -19.406216 1.888840 7.985334
v -19.578518 0.649881 4.624685
v 7.883535 2.394876 9.022697
v 8.399216 -0.224272 6.753927
v 10.070660 1.900218 6.764984
v 9.283550 0.627013 6.452393
v 7.366999 2.445235 10.436319
v 7.876867 -0.168803 5.030987
v 6.726715 1.890674 10.147812
v 8.721901 1.169847 7.634485
v 4.546654 2.309831 10.845930
v 5.376972 -0.168803 5.030987
v 4.180065 1.787370 10.086935
v 5.012070 0.476741 8.104679
v 5.383030 2.410965 8.286261
v 3.993767 -0.295209 6.347469
v -4.775581 1.839915 5.802650
v 0.497931 0.176648 4.312387
v 32.638355 -2.288538 5.133684
v 32.941128 -0.325445 3.984140
v 32.941128 -2.325445 1.984140
v 32.941128 -0.325445 1.984140
v 30.941128 -2.325445 3.984140
v 30.941128 -0.325445 3.984140
v 30.613110 -2.283551 3.099818
v 30.941128 -0.325445 1.984140
v -30.406139 -2.288538 -9.358389
v -30.103367 -0.325445 -10.507933
v -30.103367 -2.325445 -12.507933
v -30.103367 -0.325445 -12.507933
v -32.103367 -2.325445 -10.507933
v -32.103367 -0.325445 -10.507933
v -32.431385 -2.283551 -11.392255
v -32.103367 -0.325445 -12.507933
v -31.800594 -2.288538 5.133684
v -32.103367 -0.325445 3.984140
v -32.103367 -2.325445 1.984140
v -32.103367 -0.325445 1.984140
v -30.103367 -2.325445 3.984140
v -30.103367 -0.325445 3.984140
v -29.775349 -2.283551 3.099818
v -30.103367 -0.325445 1.984140
vt -0.316491 -0.084018
vt -0.128489 -1.796641
vt -0.424550 -1.765037
vt -0.350521 -1.796641
vt -0.162518 -0.084018
vt -0.131684 -1.760766
vt -0.233364 -1.760766
vt -0.316491 -0.084018
vt -0.316491 -1.796641
vt -0.162518 -1.796641
vt -0.350521 -0.084018
vt -0.322060 -1.765037
vt -0.350521 0.166884
vt -0.162518 -1.545739
vt -0.322060 -2.530107
vt -0.350521 0.166884
vt -0.162518 -1.545739
vt -0.162518 0.166884
vt -0.632479 0.238922
vt -0.778548 0.163138
vt -0.624663 -0.468045
vt 1.240409 0.304686
vt 1.749014 0.687617
vt 1.195986 0.663962
vt -0.275663 -0.566388
vt -0.044846 -0.750556
vt -0.044830 -0.653042
vt -0.632418 0.730674
vt -0.778547 0.860008
vt -0.778500 0.770397
vt 4.745965 2.782765
vt 4.195435 2.552966
vt 4.195435 2.782765
vt 2.229819 2.782765
vt 2.375232 2.552966
vt 2.399019 2.807386
vt 2.374786 3.285388
vt 2.229819 3.137964
vt 2.399019 3.162585
vt 4.745965 3.283355
vt 4.195764 3.138538
vt 4.195435 3.283355
vt -0.778520 -0.469339
vt -0.632514 -0.763782
vt -0.626511 -0.468045
vt -0.275671 0.238924
vt -0.267855 -0.468045
vt -0.044831 0.238922
vt -0.044848 0.169070
vt 4.745478 3.132037
vt -0.275696 -0.763783
vt 2.361187 3.127068
vt 2.212332 2.774994
vt 2.212332 3.130193
vt 3.205712 2.791114
vt 3.244823 3.152369
vt 2.229819 3.283355
vt 3.222831 3.285842
vt 3.183962 2.548288
vt 2.361187 2.771869
vt 2.229819 2.552967
vt 0.179863 1.056789
vt 0.199014 0.730672
vt -0.778544 0.469768
vt -0.632918 0.649246
vt -0.778547 0.596781
vt 1.748842 0.828082
vt 1.195907 0.730669
vt 1.748869 0.777430
vt 4.153636 2.772478
vt 4.745965 2.552966
vt 4.745965 2.782765
vt 4.745965 3.283355
vt 4.239642 3.140995
vt 4.745965 3.137964
vt 3.270976 3.123279
vt 3.271133 2.773432
vt 3.293717 3.284362
vt 3.293938 2.552966
vt 0.312607 0.238924
vt 0.290178 0.730669
vt -0.632909 0.238925
vt 0.198779 0.589014
vt 3.151783 2.781161
vt 2.375232 2.552966
vt 2.374786 3.285388
vt 3.151783 3.136359
vt 0.290388 0.730671
vt 3.307216 2.749906
vt 3.344271 2.526224
vt 3.316030 3.285892
vt 3.337492 3.123509
vt 4.239642 3.286386
vt 4.153636 2.542678
vt 1.153911 1.221829
vt 0.218983 0.307729
vt 3.202970 2.552966
vt 3.202727 3.284463
vt -1.913147 3.566403
vt -1.899528 3.779679
vt -1.865671 3.565150
vt -2.884528 2.100178
vt -3.477606 2.772029
vt -2.836792 2.777045
vt -1.800710 3.076036
vt -1.783962 2.747001
vt -1.761934 2.751638
vt -0.718089 4.319898
vt -0.548829 3.790009
vt -0.548829 4.157147
vt -2.844474 3.082610
vt -3.477606 2.751638
vt -2.836792 2.755920
vt -0.567691 3.294290
vt -0.718089 3.547764
vt -0.726488 3.243756
vt -0.576655 2.546183
vt -0.745777 2.518585
vt -0.717571 2.068105
vt -3.477038 3.135691
vt -2.837176 3.140989
vt -1.905896 3.778338
vt -1.935489 3.561700
vt -1.867295 3.567479
vt -1.850461 2.925542
vt -1.795661 3.065853
vt -1.797843 2.744079
vt -1.758873 2.752283
vt -0.548829 2.703712
vt -3.477606 3.762998
vt -2.844474 4.482030
vt -1.845298 3.066649
vt -0.528475 3.150986
vt -0.701742 4.145040
vt -0.528475 3.810565
vt -1.645778 3.280993
vt -1.730286 2.278069
vt -0.717571 2.948769
vt -0.548829 2.832021
vt -1.703167 2.162943
vt -1.645778 3.290097
vt -0.718089 2.738665
vt -1.659446 2.733786
vt -0.701742 3.068805
vt -0.548829 2.752283
vt -0.528475 3.065853
vt -1.659446 3.632372
vt -1.681571 4.319898
vt -3.477606 3.920787
vt -2.836792 4.319898
vt -3.477606 4.128308
vt -3.477606 3.342925
vt -2.788139 3.733821
vt -3.477606 3.770322
vt -2.888248 3.559454
vt -3.477606 3.561700
vt -2.888248 2.196492
vt -3.477606 2.493229
vt -2.217479 4.011971
vt -1.994114 4.606651
vt -1.787200 3.020907
vt -1.787456 4.319898
vt -1.822626 1.999490
vt -1.681288 2.727038
vt -1.621989 3.752698
vt -1.588650 3.627960
vt -0.805393 4.048109
vt -0.805393 3.402916
vt -1.621989 3.073484
vt -1.802912 3.093366
vt -1.846044 3.794567
vt -1.838153 2.302362
vt -2.786091 3.180589
vt -2.884528 3.842798
vt -1.838153 3.536516
vt -1.588650 3.581547
vt -1.994114 2.893770
vt 0.712897 -0.094686
vt 0.876483 -1.838738
vt 0.618873 -1.806554
vt 0.859772 -1.838738
vt 0.696187 -0.094686
vt 0.669357 -1.802205
vt 0.785228 -1.802205
vt 0.712897 -0.094686
vt 0.712897 -1.838738
vt 0.696187 -1.838738
vt 0.859772 -0.094686
vt 0.835007 -1.806554
vt 0.859772 0.160820
vt 0.696187 -1.583232
vt 0.835007 -2.585664
vt 0.859772 0.160820
vt 0.696187 -1.583232
vt 0.696187 0.160820
vt 0.205906 -0.095198
vt 0.394456 -1.836467
vt 0.097533 -1.804334
vt 0.375195 -1.836467
vt 0.186645 -0.095198
vt 0.155721 -1.799993
vt 0.289275 -1.799993
vt 0.205906 -0.095198
vt 0.205906 -1.836467
vt 0.186645 -1.836467
vt 0.375195 -0.095198
vt 0.346651 -1.804334
vt 0.375195 0.159900
vt 0.186645 -1.581368
vt 0.346651 -2.582201
vt 0.375195 0.159900
vt 0.186645 -1.581368
vt 0.186645 0.159900
vt 1.208779 -0.081599
vt 1.380619 -1.824051
vt 1.110009 -1.791896
vt 1.177675 -1.824051
vt 1.349516 -0.081599
vt 1.377699 -1.787551
vt 1.284760 -1.787551
vt 1.208779 -0.081599
vt 1.208779 -1.824051
vt 1.349516 -1.824051
vt 1.177675 -0.081599
vt 1.203689 -1.791896
vt 1.177675 0.173673
vt 1.349516 -1.568779
vt 1.203689 -2.570290
vt 1.177675 0.173673
vt 1.349516 -1.568779
vt 1.349516 0.173673
vt -0.128489 -0.084018
vt -0.350521 -0.084018
vt -0.128489 -0.084018
vt -0.162518 -0.084018
vt -0.131684 -0.788483
vt -0.350521 -1.545739
vt -0.778535 0.215010
vt 1.749018 0.520507
vt -0.632517 0.919139
vt 4.745965 2.552966
vt 2.229819 2.552967
vt 2.229819 3.283355
vt -0.778548 -0.637878
vt 0.341046 1.763783
vt -1.929868 3.694040
vt -3.477606 2.413365
vt -3.477606 3.076036
vt -1.943966 3.770322
vt -0.726488 3.156026
vt -0.718089 2.755920
vt -1.822626 3.745000
vt -2.217479 3.557483
vt 0.876483 -0.094686
vt 0.859772 -0.094686
vt 0.876483 -0.094686
vt 0.696187 -0.094686
vt 0.669357 -0.812080
vt 0.859772 -1.583232
vt 0.394456 -0.095198
vt 0.375195 -0.095198
vt 0.394456 -0.095198
vt 0.186645 -0.095198
vt 0.155721 -0.811447
vt 0.375195 -1.581368
vt 1.380619 -0.081599
vt 1.177675 -0.081599
vt 1.380619 -0.081599
vt 1.349516 -0.081599
vt 1.377699 -0.798335
vt 1.177675 -1.568779
vn -0.5832 0.6323 0.5099
vn -0.5104 -0.6135 -0.6026
vn -0.2761 -0.3721 0.8862
vn 0.5693 0.5171 -0.6391
vn 0.7721 -0.6026 -0.2015
vn 0.5337 0.6038 0.5921
vn 0.5582 -0.6013 0.5717
vn -0.5773 0.5773 -0.5773
vn -0.1600 0.9871 -0.0088
vn -0.5847 -0.5697 -0.5775
vn -0.9906 -0.1298 -0.0431
vn 0.0034 0.5802 -0.8144
vn 0.5793 -0.5755 -0.5772
vn 0.0006 -0.8092 -0.5875
vn 0.7082 -0.7060 0.0006
vn 0.5784 0.5743 0.5793
vn 0.5786 -0.5750 0.5784
vn -0.0048 -0.7053 0.7089
vn -0.5578 0.5757 0.5978
vn -0.5568 -0.5739 0.6005
vn 0.0042 -0.9495 0.3138
vn 0.0021 -1.0000 -0.0005
vn -0.1502 0.9886 -0.0011
vn -0.0078 0.7113 0.7028
vn -0.0050 1.0000 -0.0022
vn -0.0129 0.7149 -0.6991
vn -0.0041 0.9999 0.0113
vn 0.0020 -1.0000 -0.0056
vn 0.7285 0.6850 -0.0020
vn 0.6835 -0.7300 -0.0021
vn -0.9912 -0.1319 0.0100
vn 0.7082 0.7060 0.0057
vn -0.0089 -0.9999 -0.0074
vn -0.0083 0.9999 0.0024
vn -0.0060 1.0000 0.0006
vn -0.0120 0.6373 -0.7705
vn -0.0033 0.5050 0.8631
vn -0.0095 -0.9999 0.0052
vn -0.0029 -0.8624 0.5062
vn -0.5921 0.5619 -0.5777
vn -0.0060 -0.7006 -0.7136
vn 0.0013 1.0000 0.0074
vn 0.5817 0.5704 -0.5799
vn 0.0027 1.0000 0.0016
vn -0.0180 -0.9998 -0.0075
vn -0.0128 -0.9999 0.0038
vn -0.0092 -0.7490 -0.6625
vn -0.0226 -0.9831 0.1818
vn -0.0045 0.6640 -0.7477
vn -0.0148 -0.7618 -0.6476
vn -0.0130 -0.9999 -0.0008
vn -0.0146 -0.9998 -0.0066
vn -0.0039 1.0000 0.0063
vn 0.0094 0.1133 0.9935
vn -0.0020 1.0000 0.0037
vn 0.0042 0.3038 0.9527
vn -0.6178 0.2710 -0.7382
vn -0.5208 -0.8462 -0.1122
vn -0.9113 -0.3854 0.1446
vn 0.0135 -0.6143 -0.7889
vn 0.6571 -0.7281 0.1952
vn 0.0125 -0.9595 0.2814
vn 0.7154 -0.5482 0.4332
vn 0.6560 0.7338 -0.1766
vn 0.5832 0.3013 0.7544
vn -0.0094 0.4807 0.8768
vn -0.5069 0.8380 -0.2021
vn -0.5063 0.3751 0.7765
vn 0.0523 -0.3659 0.9292
vn 0.0161 0.8384 0.5448
vn -0.3360 0.7535 -0.5650
vn 0.0168 0.9011 -0.4332
vn 0.0181 0.7254 -0.6880
vn -0.1950 -0.2412 -0.9507
vn -0.0132 0.9001 -0.4354
vn -0.1759 -0.1529 -0.9724
vn 0.6860 -0.6025 0.4078
vn 0.0400 -0.9049 0.4237
vn 0.6555 0.4944 -0.5708
vn -0.9193 -0.2339 0.3164
vn 0.7143 0.6085 -0.3456
vn -0.1000 -0.5935 0.7985
vn -0.0796 0.7860 -0.6130
vn -0.1036 0.7656 -0.6348
vn -0.0380 -0.9839 0.1744
vn -0.0480 -0.5268 -0.8486
vn -0.0493 0.9026 -0.4276
vn 0.0000 0.2368 0.9715
vn 0.0004 0.9408 -0.3390
vn 0.5817 -0.4615 -0.6698
vn 0.0073 0.6959 -0.7181
vn -0.0002 -0.8694 0.4940
vn -0.0434 0.1471 0.9882
vn -0.0047 -0.9914 0.1304
vn -0.1633 0.4086 0.8979
vn -0.0043 -0.2672 -0.9636
vn -0.0218 -0.9949 0.0979
vn -0.0882 -0.5354 0.8400
vn -0.0216 -0.7349 0.6778
vn -0.0058 -0.6424 0.7663
vn -0.0369 0.8668 -0.4973
vn 0.0088 0.9863 -0.1644
vn 0.0034 0.8305 -0.5569
vn -0.0029 0.8628 -0.5054
vn -0.5832 -0.6323 -0.5099
vn -0.5104 0.6135 0.6026
vn -0.2761 0.3721 -0.8862
vn 0.5693 -0.5171 0.6391
vn 0.7721 0.6026 0.2015
vn 0.5337 -0.6038 -0.5921
vn 0.5582 0.6013 -0.5717
vn -0.5773 -0.5773 0.5773
s 1
f 2/1/1 3/2/2 1/3/3
f 3/4/2 8/5/4 7/6/5
f 7/7/5 6/8/6 5/9/7
f 5/10/7 2/11/1 1/12/3
f 3/13/2 5/14/7 1/15/3
f 4/16/8 6/17/6 8/18/4
f 18/19/9 11/20/10 17/21/11
f 33/22/12 15/23/13 37/24/14
f 24/25/15 14/26/16 13/27/17
f 27/28/18 10/29/19 9/30/20
f 24/31/15 34/32/21 40/33/22
f 23/34/23 28/35/24 31/36/25
f 26/37/26 18/38/9 29/39/27
f 15/40/13 39/41/28 37/42/14
f 15/43/13 20/44/29 19/45/30
f 23/46/23 17/21/11 21/47/31
f 10/48/19 21/47/31 9/49/20
f 18/38/9 31/36/25 29/39/27
f 19/50/30 40/33/22 39/41/28
f 19/45/30 22/51/32 24/25/15
f 30/52/33 21/53/31 17/54/11
f 29/39/27 48/55/34 47/56/35
f 11/57/10 30/52/33 17/54/11
f 45/58/36 29/39/27 47/56/35
f 31/36/25 42/59/37 48/55/34
f 32/60/38 9/61/20 21/53/31
f 42/62/37 27/28/18 46/63/39
f 12/64/40 25/65/41 11/66/10
f 14/67/16 34/68/21 13/69/17
f 36/70/42 14/71/16 22/72/32
f 16/73/43 35/74/44 20/75/29
f 35/74/44 22/72/32 20/75/29
f 55/76/45 40/33/22 56/77/46
f 53/78/47 39/41/28 55/76/45
f 40/33/22 50/79/48 56/77/46
f 49/80/49 37/24/14 53/81/47
f 26/82/26 41/83/50 25/65/41
f 44/84/51 27/85/18 32/60/38
f 25/86/41 43/87/52 30/52/33
f 30/52/33 44/84/51 32/60/38
f 50/88/48 42/62/37 46/63/39
f 52/89/53 42/59/37 54/90/54
f 49/91/49 47/56/35 51/92/55
f 51/92/55 48/55/34 52/89/53
f 51/92/55 36/70/42 35/74/44
f 33/93/12 51/92/55 35/74/44
f 36/70/42 54/90/54 38/94/56
f 38/95/56 50/88/48 34/68/21
f 45/96/36 53/81/47 41/83/50
f 56/77/46 46/97/39 44/84/51
f 41/98/50 55/76/45 43/87/52
f 55/76/45 44/84/51 43/87/52
f 66/99/57 59/100/58 65/101/59
f 81/102/60 63/103/61 85/104/62
f 72/105/63 62/106/64 61/107/65
f 75/108/66 58/109/67 57/110/68
f 88/111/69 61/112/65 82/113/70
f 71/114/71 76/115/72 79/116/73
f 60/117/74 77/118/75 74/119/76
f 85/104/62 67/120/77 87/121/78
f 63/122/61 68/123/79 67/124/77
f 71/125/71 65/101/59 69/126/80
f 58/127/67 69/126/80 57/128/68
f 66/129/57 79/116/73 77/118/75
f 87/121/78 72/130/63 88/131/69
f 67/124/77 70/132/81 72/105/63
f 65/133/59 80/134/82 69/135/80
f 77/118/75 96/136/83 95/137/84
f 73/138/85 65/133/59 59/139/58
f 93/140/86 77/118/75 95/137/84
f 96/141/83 76/142/72 90/143/87
f 80/144/82 57/145/68 69/146/80
f 90/147/87 75/108/66 94/148/88
f 60/117/74 73/138/85 59/139/58
f 62/149/64 82/150/70 61/151/65
f 70/152/81 86/153/89 62/149/64
f 64/154/90 83/155/91 68/156/79
f 83/157/91 70/152/81 68/158/79
f 103/159/92 88/131/69 104/160/93
f 85/104/62 103/159/92 101/161/94
f 104/160/93 82/150/70 98/162/95
f 97/163/96 85/104/62 101/161/94
f 74/119/76 89/164/97 73/138/85
f 92/165/98 75/108/66 80/134/82
f 73/138/85 91/166/99 78/167/100
f 78/168/100 92/169/98 80/144/82
f 98/162/95 90/147/87 94/148/88
f 100/170/101 90/147/87 102/171/102
f 97/163/96 95/137/84 99/172/103
f 95/137/84 100/170/101 99/172/103
f 99/172/103 84/173/104 83/157/91
f 81/174/60 99/175/103 83/155/91
f 84/173/104 102/171/102 86/153/89
f 82/150/70 102/171/102 98/162/95
f 93/140/86 101/161/94 89/164/97
f 92/165/98 98/162/95 94/148/88
f 101/161/94 91/166/99 89/164/97
f 91/176/99 104/177/93 92/169/98
f 106/178/105 107/179/106 105/180/107
f 107/181/106 112/182/108 111/183/109
f 111/184/109 110/185/110 109/186/111
f 109/187/111 106/188/105 105/189/107
f 107/190/106 109/191/111 105/192/107
f 108/193/112 110/194/110 112/195/108
f 114/196/105 115/197/106 113/198/107
f 115/199/106 120/200/108 119/201/109
f 119/202/109 118/203/110 117/204/111
f 117/205/111 114/206/105 113/207/107
f 115/208/106 117/209/111 113/210/107
f 116/211/112 118/212/110 120/213/108
f 122/214/1 123/215/2 121/216/3
f 123/217/2 128/218/4 127/219/5
f 127/220/5 126/221/6 125/222/7
f 125/223/7 122/224/1 121/225/3
f 123/226/2 125/227/7 121/228/3
f 124/229/8 126/230/6 128/231/4
f 2/1/1 4/232/8 3/2/2
f 3/4/2 4/233/8 8/5/4
f 7/7/5 8/234/4 6/8/6
f 5/10/7 6/235/6 2/11/1
f 3/13/2 7/236/5 5/14/7
f 4/16/8 2/237/1 6/17/6
f 18/19/9 12/238/40 11/20/10
f 33/22/12 16/239/43 15/23/13
f 24/25/15 22/51/32 14/26/16
f 27/28/18 28/240/24 10/29/19
f 24/31/15 13/241/17 34/32/21
f 23/34/23 10/242/19 28/35/24
f 26/37/26 12/243/40 18/38/9
f 15/40/13 19/50/30 39/41/28
f 15/43/13 16/244/43 20/44/29
f 23/46/23 18/19/9 17/21/11
f 10/48/19 23/46/23 21/47/31
f 18/38/9 23/34/23 31/36/25
f 19/50/30 24/31/15 40/33/22
f 19/45/30 20/44/29 22/51/32
f 30/52/33 32/60/38 21/53/31
f 29/39/27 31/36/25 48/55/34
f 11/57/10 25/86/41 30/52/33
f 45/58/36 26/37/26 29/39/27
f 31/36/25 28/35/24 42/59/37
f 32/60/38 27/85/18 9/61/20
f 42/62/37 28/240/24 27/28/18
f 12/64/40 26/82/26 25/65/41
f 14/67/16 38/95/56 34/68/21
f 36/70/42 38/94/56 14/71/16
f 16/73/43 33/93/12 35/74/44
f 35/74/44 36/70/42 22/72/32
f 55/76/45 39/41/28 40/33/22
f 53/78/47 37/42/14 39/41/28
f 40/33/22 34/32/21 50/79/48
f 49/80/49 33/22/12 37/24/14
f 26/82/26 45/96/36 41/83/50
f 44/84/51 46/97/39 27/85/18
f 25/86/41 41/98/50 43/87/52
f 30/52/33 43/87/52 44/84/51
f 50/88/48 54/245/54 42/62/37
f 52/89/53 48/55/34 42/59/37
f 49/91/49 45/58/36 47/56/35
f 51/92/55 47/56/35 48/55/34
f 51/92/55 52/89/53 36/70/42
f 33/93/12 49/91/49 51/92/55
f 36/70/42 52/89/53 54/90/54
f 38/95/56 54/245/54 50/88/48
f 45/96/36 49/80/49 53/81/47
f 56/77/46 50/79/48 46/97/39
f 41/98/50 53/78/47 55/76/45
f 55/76/45 56/77/46 44/84/51
f 66/99/57 60/246/74 59/100/58
f 81/102/60 64/247/90 63/103/61
f 72/105/63 70/132/81 62/106/64
f 75/108/66 76/115/72 58/109/67
f 88/111/69 72/248/63 61/112/65
f 71/114/71 58/109/67 76/115/72
f 60/117/74 66/129/57 77/118/75
f 85/104/62 63/103/61 67/120/77
f 63/122/61 64/249/90 68/123/79
f 71/125/71 66/99/57 65/101/59
f 58/127/67 71/125/71 69/126/80
f 66/129/57 71/114/71 79/116/73
f 87/121/78 67/120/77 72/130/63
f 67/124/77 68/123/79 70/132/81
f 65/133/59 78/167/100 80/134/82
f 77/118/75 79/116/73 96/136/83
f 73/138/85 78/167/100 65/133/59
f 93/140/86 74/119/76 77/118/75
f 96/141/83 79/250/73 76/142/72
f 80/144/82 75/251/66 57/145/68
f 90/147/87 76/115/72 75/108/66
f 60/117/74 74/119/76 73/138/85
f 62/149/64 86/153/89 82/150/70
f 70/152/81 84/173/104 86/153/89
f 64/154/90 81/174/60 83/155/91
f 83/157/91 84/173/104 70/152/81
f 103/159/92 87/121/78 88/131/69
f 85/104/62 87/121/78 103/159/92
f 104/160/93 88/131/69 82/150/70
f 97/163/96 81/102/60 85/104/62
f 74/119/76 93/140/86 89/164/97
f 92/165/98 94/148/88 75/108/66
f 73/138/85 89/164/97 91/166/99
f 78/168/100 91/176/99 92/169/98
f 98/162/95 102/171/102 90/147/87
f 100/170/101 96/136/83 90/147/87
f 97/163/96 93/140/86 95/137/84
f 95/137/84 96/136/83 100/170/101
f 99/172/103 100/170/101 84/173/104
f 81/174/60 97/252/96 99/175/103
f 84/173/104 100/170/101 102/171/102
f 82/150/70 86/153/89 102/171/102
f 93/140/86 97/163/96 101/161/94
f 92/165/98 104/160/93 98/162/95
f 101/161/94 103/159/92 91/166/99
f 91/176/99 103/253/92 104/177/93
f 106/178/105 108/254/112 107/179/106
f 107/181/106 108/255/112 112/182/108
f 111/184/109 112/256/108 110/185/110
f 109/187/111 110/257/110 106/188/105
f 107/190/106 111/258/109 109/191/111
f 108/193/112 106/259/105 110/194/110
f 114/196/105 116/260/112 115/197/106
f 115/199/106 116/261/112 120/200/108
f 119/202/109 120/262/108 118/203/110
f 117/205/111 118/263/110 114/206/105
f 115/208/106 119/264/109 117/209/111
f 116/211/112 114/265/105 118/212/110
f 122/214/1 124/266/8 123/215/2
f 123/217/2 124/267/8 128/218/4
f 127/220/5 128/268/4 126/221/6
f 125/223/7 126/269/6 122/224/1
f 123/226/2 127/270/5 125/227/7
f 124/229/8 122/271/1 126/230/6
