# Blender v2.80 (sub 75) OBJ File: 'nonEuclidianScene.blend'
# www.blender.org
o Blood_4_Mesh_Root_Plane.015
v -0.970355 0.750234 0.078330
v 0.052972 -0.533141 0.064999
v -2.253619 -0.273180 0.095162
v -1.230292 -1.556555 0.081831
v -0.169202 8.090536 0.125043
v -1.199849 7.282227 0.152164
v -0.977220 9.121540 0.146760
v -2.007867 8.313231 0.173881
v 2.319948 8.096215 -0.831819
v 1.476175 7.227885 -0.331435
v 1.610934 9.075722 -0.327634
v 0.767160 8.207392 0.172749
v 3.807528 -0.475194 -1.911642
v 3.827322 -3.493608 0.517133
v 3.717292 -2.903701 -4.928986
v 3.737086 -5.922115 -2.500213
v 2.986401 -5.129375 -1.072522
v 2.260957 -6.509334 -0.512404
v 1.801426 -4.217146 -0.359812
v 1.075981 -5.597104 0.200305
vt 0.500000 0.000000
vt 0.000000 0.500000
vt 0.000000 0.000000
vt 0.000000 0.000000
vt 0.500000 0.500000
vt 0.000000 0.500000
vt 0.000000 0.500000
vt 0.500000 1.000000
vt 0.000000 1.000000
vt 1.000000 0.500000
vt 0.500000 1.000000
vt 0.500000 0.500000
vt 0.000000 0.500000
vt 0.500000 1.000000
vt 0.000000 1.000000
vt 0.500000 0.500000
vt 0.500000 0.000000
vt 0.500000 0.500000
vt 1.000000 1.000000
vt 0.500000 0.500000
vn -0.0131 -0.0000 -0.9999
vn -0.0265 0.0003 -0.9996
vn -0.5406 0.0412 -0.8402
vn 0.9997 -0.0106 -0.0213
vn -0.5446 -0.0535 -0.8370
s off
f 2/1/1 3/2/1 1/3/1
f 5/4/2 8/5/2 7/6/2
f 9/7/3 12/8/3 11/9/3
f 14/10/4 15/11/4 13/12/4
f 17/13/5 20/14/5 19/15/5
f 2/1/1 4/16/1 3/2/1
f 5/4/2 6/17/2 8/5/2
f 9/7/3 10/18/3 12/8/3
f 14/10/4 16/19/4 15/11/4
f 17/13/5 18/20/5 20/14/5
