# Blender v2.80 (sub 75) OBJ File: 'nonEuclidianScene.blend'
# www.blender.org
o Blood_1_Mesh_Root_Plane.023
v 2.577250 -0.067554 -0.275185
v 0.261725 -0.067554 2.611886
v -0.309822 -0.067554 -2.590710
v -2.625347 -0.067554 0.296361
v 0.824187 -2.740672 -9.628575
v 1.348443 -1.196082 -6.306490
v -2.838915 -2.575372 -9.127358
v -2.314660 -1.030782 -5.805274
v -4.332577 -1.586283 -15.923688
v -3.999921 -0.730146 -12.338553
v -8.004982 -1.201023 -15.674939
v -7.672328 -0.344886 -12.089801
v -10.297654 1.991323 -5.049489
v -8.008578 -0.916273 -4.995970
v -9.648772 2.568399 -1.451874
v -7.359693 -0.339202 -1.398353
vt 0.500000 0.000000
vt 0.000000 0.500000
vt 0.000000 0.000000
vt 0.500000 0.000000
vt 0.000000 0.500000
vt 0.000000 0.000000
vt 0.000000 0.500000
vt 0.500000 1.000000
vt 0.000000 1.000000
vt 0.000000 0.500000
vt 0.500000 1.000000
vt 0.000000 1.000000
vt 0.500000 0.500000
vt 0.500000 0.500000
vt 0.500000 0.500000
vt 0.500000 0.500000
vn 0.0000 -1.0000 0.0000
vn 0.0164 -0.9076 0.4194
vn -0.0853 -0.9673 0.2389
vn -0.7660 -0.5987 0.2342
s off
f 2/1/1 3/2/1 1/3/1
f 6/4/2 7/5/2 5/6/2
f 9/7/3 12/8/3 11/9/3
f 13/10/4 16/11/4 15/12/4
f 2/1/1 4/13/1 3/2/1
f 6/4/2 8/14/2 7/5/2
f 9/7/3 10/15/3 12/8/3
f 13/10/4 14/16/4 16/11/4
