# Blender v2.80 (sub 75) OBJ File: 'nonEuclidianScene.blend'
# www.blender.org
o Cabinet_Root_Cube.076
v -0.876381 -1.000000 1.016207
v -0.876381 1.000000 1.016207
v -0.809834 -1.000000 -0.975068
v -0.809834 1.000000 -0.975068
v 0.809835 -1.000000 0.975068
v 0.809835 1.000000 0.975068
v 0.876382 -1.000000 -1.016207
v 0.876382 1.000000 -1.016207
vt 0.491034 1.174379
vt 0.006968 -0.182984
vt 0.491034 -0.182984
vt 0.417219 1.175524
vt 0.121649 -0.175545
vt 0.417219 -0.175544
vt 0.492527 1.174379
vt 0.008461 -0.182984
vt 0.492527 -0.182984
vt 0.857860 0.985222
vt 0.632802 0.015359
vt 0.857860 0.015359
vt 0.416637 0.266838
vt 0.120736 0.614590
vt 0.416637 0.616948
vt 0.416637 0.268322
vt 0.120736 0.616075
vt 0.120736 0.265965
vt 0.006969 1.174379
vt 0.121649 1.175524
vt 0.008461 1.174379
vt 0.632802 0.985222
vt 0.120736 0.264481
vt 0.416637 0.618432
vn -0.9994 0.0000 -0.0334
vn -0.0244 0.0000 -0.9997
vn 0.9994 0.0000 0.0334
vn 0.0244 0.0000 0.9997
vn 0.0000 -1.0000 -0.0000
vn 0.0000 1.0000 0.0000
s off
f 2/1/1 3/2/1 1/3/1
f 4/4/2 7/5/2 3/6/2
f 8/7/3 5/8/3 7/9/3
f 6/10/4 1/11/4 5/12/4
f 3/13/5 5/14/5 1/15/5
f 4/16/6 6/17/6 8/18/6
f 2/1/1 4/19/1 3/2/1
f 4/4/2 8/20/2 7/5/2
f 8/7/3 6/21/3 5/8/3
f 6/10/4 2/22/4 1/11/4
f 3/13/5 7/23/5 5/14/5
f 4/16/6 2/24/6 6/17/6
