# Blender v2.80 (sub 75) OBJ File: 'nonEuclidianScene.blend'
# www.blender.org
o Lantern_Root_Cube.080
v -0.321933 -0.028185 0.321945
v -0.321933 0.057240 0.321945
v -0.321933 -0.028185 -0.321945
v -0.321933 0.057240 -0.321945
v 0.321957 -0.028185 0.321945
v 0.321957 0.057240 0.321945
v 0.321957 -0.028185 -0.321945
v 0.321957 0.057240 -0.321945
v -0.185039 0.057240 0.185046
v -0.185039 0.057240 -0.185046
v 0.185053 0.057240 -0.185046
v 0.185053 0.057240 0.185046
v -0.185039 0.596587 0.185046
v -0.185039 0.596587 -0.185046
v 0.185053 0.596587 -0.185046
v 0.185053 0.596587 0.185046
v -0.185039 0.596587 0.185046
v -0.185039 0.596587 -0.185046
v 0.185053 0.596587 -0.185046
v 0.185053 0.596587 0.185046
v -0.285499 0.596587 0.285510
v -0.285499 0.596587 -0.285510
v 0.285520 0.596587 -0.285510
v 0.285520 0.596587 0.285510
v -0.285499 0.684757 0.285510
v -0.285499 0.684757 -0.285510
v 0.285520 0.684757 -0.285510
v 0.285520 0.684757 0.285510
v -0.070831 1.008970 0.070856
v -0.070831 1.008970 -0.070856
v 0.070882 1.008970 -0.070856
v 0.070882 1.008970 0.070856
v 0.235287 0.596587 -0.235278
v 0.235287 0.596587 0.235278
v -0.235269 0.596587 0.235278
v -0.235269 0.596587 -0.235278
v -0.285499 0.562931 0.285510
v -0.285499 0.562931 -0.285510
v 0.285520 0.562931 -0.285510
v 0.285520 0.562931 0.285510
v 0.235287 0.562931 -0.235278
v -0.235269 0.562931 0.235278
v 0.235287 0.562931 0.235278
v -0.235269 0.562931 -0.235278
v -0.028339 1.008970 0.028368
v -0.028339 1.008970 -0.028368
v 0.028396 1.008970 -0.028368
v 0.028396 1.008970 0.028368
v -0.026294 1.300740 0.028368
v -0.026294 1.300740 -0.028368
v 0.026351 1.279588 -0.028368
v 0.026351 1.279588 0.028368
v 0.041899 1.462520 0.028368
v 0.041899 1.462520 -0.028368
v 0.079646 1.420164 -0.028368
v 0.079646 1.420164 0.028368
v 0.234761 1.618210 0.017396
v 0.234761 1.618210 -0.017396
v 0.247310 1.585760 -0.017396
v 0.247310 1.585760 0.017396
v 0.508358 1.710886 0.005852
v 0.508358 1.710886 -0.005852
v 0.506866 1.699276 -0.005852
v 0.506866 1.699276 0.005852
vt 0.990789 0.305125
vt 0.992534 0.304278
vt 0.991000 0.305943
vt 0.991352 0.300959
vt 0.993518 0.312528
vt 0.992505 0.308342
vt 0.990135 0.308572
vt 0.990794 0.307647
vt 0.992807 0.309411
vt 0.991551 0.002596
vt 0.003062 0.989203
vt 0.003062 0.002596
vt 0.988380 0.309855
vt 0.993518 0.300570
vt 0.989590 0.304462
vt 0.988374 0.300913
vt 0.988240 0.309436
vt 0.988235 0.301016
vt 0.994679 0.993648
vt 0.011885 0.010506
vt 0.994679 0.010506
vt 0.991775 0.991550
vt 0.008980 0.008408
vt 0.991775 0.008408
vt 0.994679 0.991550
vt 0.011885 0.008408
vt 0.994679 0.008408
vt 0.987055 0.308101
vt 0.986675 0.302238
vt 0.987184 0.301924
vt 0.977185 0.309627
vt 0.981296 0.300703
vt 0.977437 0.309471
vt 0.988374 0.309611
vt 0.981214 0.300570
vt 0.981882 0.306338
vt 0.985286 0.305984
vt 0.985835 0.306533
vt 0.979834 0.307774
vt 0.986665 0.307493
vt 0.982506 0.302622
vt 0.986151 0.302713
vt 0.985860 0.302918
vt 0.981520 0.306594
vt 0.984314 0.304436
vt 0.985375 0.303388
vt 0.982936 0.303134
vt 0.982503 0.305761
vt 0.983760 0.304822
vt 0.984099 0.304756
vt 0.984208 0.304935
vt 0.983783 0.304321
vt 0.981786 0.301435
vt 0.986085 0.306873
vt 0.982320 0.302316
vt 0.982046 0.301931
vt 0.980531 0.307361
vt 0.984136 0.304544
vt 0.984011 0.304639
vt 0.984003 0.304637
vt 0.983927 0.304513
vt 0.983891 0.304725
vt 0.984005 0.304642
vt 0.984001 0.304634
vt 0.984002 0.304638
vt 0.983996 0.304631
vt 0.983992 0.304626
vt 0.983998 0.304632
vt 0.983999 0.304634
vt 0.983990 0.304625
vt 0.983989 0.304621
vt 0.983982 0.304614
vt 0.983995 0.304628
vt 0.983993 0.304627
vt 0.983986 0.304620
vt 0.983989 0.304622
vt 0.991551 0.989203
vt 0.011885 0.993648
vt 0.008981 0.991550
vt 0.011885 0.991550
vn -1.0000 0.0000 0.0000
vn 0.0000 0.0000 -1.0000
vn 1.0000 0.0000 0.0000
vn 0.0000 0.0000 1.0000
vn 0.0000 -1.0000 0.0000
vn 0.0000 1.0000 0.0000
vn 0.0000 0.5520 0.8338
vn 0.0000 0.5520 -0.8338
vn 0.8338 0.5520 0.0000
vn -0.8338 0.5521 0.0000
vn 0.9351 -0.3545 0.0000
vn 1.0000 0.0076 0.0000
vn -1.0000 0.0070 0.0000
vn -0.6281 0.7781 0.0000
vn -0.9215 0.3884 0.0000
vn 0.0441 -0.0057 0.9990
vn 0.0433 0.0167 0.9989
vn 0.0348 0.0310 -0.9989
vn 0.7027 -0.7115 0.0000
vn 0.9918 -0.1275 0.0000
vn 0.0380 0.0147 -0.9992
vn 0.4007 -0.9162 0.0000
vn -0.3208 0.9471 0.0000
vn 0.0380 0.0147 0.9992
vn 0.0348 0.0310 0.9989
vn 0.0433 0.0167 -0.9989
vn 0.0441 -0.0057 -0.9990
s off
f 2/1/1 3/2/1 1/3/1
f 4/4/2 7/5/2 3/2/2
f 8/6/3 5/7/3 7/5/3
f 6/8/4 1/3/4 5/7/4
f 7/5/5 1/3/5 3/2/5
f 4/4/6 11/9/6 8/6/6
f 11/10/3 16/11/3 12/12/3
f 8/6/6 12/13/6 6/8/6
f 2/1/6 10/14/6 4/4/6
f 2/1/6 12/13/6 9/15/6
f 13/16/4 20/17/4 17/18/4
f 9/19/1 14/20/1 10/21/1
f 12/22/4 13/23/4 9/24/4
f 10/25/2 15/26/2 11/27/2
f 34/28/2 42/29/2 35/30/2
f 15/31/4 18/32/4 19/33/4
f 16/34/4 19/33/4 20/17/4
f 14/35/4 17/18/4 18/32/4
f 23/36/3 28/37/3 24/38/3
f 33/39/1 43/40/1 34/28/1
f 22/41/1 37/42/1 21/43/1
f 24/38/3 39/44/3 23/36/3
f 28/37/7 29/45/7 25/46/7
f 21/43/1 26/47/1 22/41/1
f 24/38/4 25/46/4 21/43/4
f 22/41/2 27/48/2 23/36/2
f 31/49/6 48/50/6 32/51/6
f 27/48/8 30/52/8 31/49/8
f 27/48/9 32/51/9 28/37/9
f 25/46/10 30/52/10 26/47/10
f 19/33/5 36/53/5 33/39/5
f 20/17/5 35/30/5 17/18/5
f 17/18/5 36/53/5 18/32/5
f 19/33/5 34/28/5 20/17/5
f 43/40/5 39/44/5 40/54/5
f 42/29/5 38/55/5 44/56/5
f 43/40/5 37/42/5 42/29/5
f 41/57/5 38/55/5 39/44/5
f 21/43/4 40/54/4 24/38/4
f 23/36/2 38/55/2 22/41/2
f 35/30/3 44/56/3 36/53/3
f 36/53/4 41/57/4 33/39/4
f 45/58/4 52/59/4 49/60/4
f 29/45/6 46/61/6 30/52/6
f 32/51/6 45/58/6 29/45/6
f 31/49/6 46/61/6 47/62/6
f 51/63/11 56/64/11 52/59/11
f 46/61/2 51/63/2 47/62/2
f 47/62/12 52/59/12 48/50/12
f 45/58/13 50/65/13 46/61/13
f 53/66/14 58/67/14 54/68/14
f 49/60/15 54/68/15 50/65/15
f 49/60/4 56/64/4 53/66/4
f 50/65/2 55/69/2 51/63/2
f 57/70/16 64/71/16 61/72/16
f 53/66/17 60/73/17 57/70/17
f 54/68/18 59/74/18 55/69/18
f 55/69/19 60/73/19 56/64/19
f 62/75/20 64/71/20 63/76/20
f 58/67/21 63/76/21 59/74/21
f 59/74/22 64/71/22 60/73/22
f 57/70/23 62/75/23 58/67/23
f 2/1/1 4/4/1 3/2/1
f 4/4/2 8/6/2 7/5/2
f 8/6/3 6/8/3 5/7/3
f 6/8/4 2/1/4 1/3/4
f 7/5/5 5/7/5 1/3/5
f 4/4/6 10/14/6 11/9/6
f 11/10/3 15/77/3 16/11/3
f 8/6/6 11/9/6 12/13/6
f 2/1/6 9/15/6 10/14/6
f 2/1/6 6/8/6 12/13/6
f 13/16/4 16/34/4 20/17/4
f 9/19/1 13/78/1 14/20/1
f 12/22/4 16/79/4 13/23/4
f 10/25/2 14/80/2 15/26/2
f 34/28/2 43/40/2 42/29/2
f 15/31/4 14/35/4 18/32/4
f 16/34/4 15/31/4 19/33/4
f 14/35/4 13/16/4 17/18/4
f 23/36/3 27/48/3 28/37/3
f 33/39/1 41/57/1 43/40/1
f 22/41/1 38/55/1 37/42/1
f 24/38/3 40/54/3 39/44/3
f 28/37/7 32/51/7 29/45/7
f 21/43/1 25/46/1 26/47/1
f 24/38/4 28/37/4 25/46/4
f 22/41/2 26/47/2 27/48/2
f 31/49/6 47/62/6 48/50/6
f 27/48/8 26/47/8 30/52/8
f 27/48/9 31/49/9 32/51/9
f 25/46/10 29/45/10 30/52/10
f 19/33/5 18/32/5 36/53/5
f 20/17/5 34/28/5 35/30/5
f 17/18/5 35/30/5 36/53/5
f 19/33/5 33/39/5 34/28/5
f 43/40/5 41/57/5 39/44/5
f 42/29/5 37/42/5 38/55/5
f 43/40/5 40/54/5 37/42/5
f 41/57/5 44/56/5 38/55/5
f 21/43/4 37/42/4 40/54/4
f 23/36/2 39/44/2 38/55/2
f 35/30/3 42/29/3 44/56/3
f 36/53/4 44/56/4 41/57/4
f 45/58/4 48/50/4 52/59/4
f 29/45/6 45/58/6 46/61/6
f 32/51/6 48/50/6 45/58/6
f 31/49/6 30/52/6 46/61/6
f 51/63/11 55/69/11 56/64/11
f 46/61/2 50/65/2 51/63/2
f 47/62/12 51/63/12 52/59/12
f 45/58/13 49/60/13 50/65/13
f 53/66/14 57/70/14 58/67/14
f 49/60/15 53/66/15 54/68/15
f 49/60/4 52/59/4 56/64/4
f 50/65/2 54/68/2 55/69/2
f 57/70/24 60/73/24 64/71/24
f 53/66/25 56/64/25 60/73/25
f 54/68/26 58/67/26 59/74/26
f 55/69/19 59/74/19 60/73/19
f 62/75/20 61/72/20 64/71/20
f 58/67/27 62/75/27 63/76/27
f 59/74/22 63/76/22 64/71/22
f 57/70/23 61/72/23 62/75/23
