# Blender v2.80 (sub 75) OBJ File: 'nonEuclidianScene.blend'
# www.blender.org
o Monitor_Root_Plane.020
v 0.000000 0.897837 0.636381
v 0.000000 -0.013842 0.636381
v 0.000000 0.897837 -0.636381
v 0.000000 -0.013842 -0.636381
v 0.000000 0.897837 0.536381
v 0.000000 -0.013842 0.536381
v 0.000000 -0.013842 -0.536381
v 0.000000 0.897837 -0.536381
v 0.000000 0.797837 0.636381
v 0.000000 0.797837 -0.636381
v 0.006827 0.754406 0.470915
v 0.006827 0.754406 -0.470915
v 0.000000 0.086158 0.636381
v 0.000000 0.086158 -0.636381
v 0.006827 0.129589 0.470915
v 0.006827 0.129589 -0.470915
v 0.111870 0.897837 0.536381
v 0.111870 0.897837 0.636381
v 0.111870 0.086158 0.636381
v 0.111870 -0.013842 0.636381
v 0.111870 -0.013842 -0.536381
v 0.111870 -0.013842 -0.636381
v 0.111870 0.797837 -0.636381
v 0.111870 0.897837 -0.636381
v 0.111870 0.897837 -0.536381
v 0.111870 -0.013842 0.536381
v 0.105043 0.754406 0.470915
v 0.105043 0.754406 -0.470915
v 0.111870 0.797837 0.636381
v 0.111870 0.086158 -0.636381
v 0.105043 0.129589 0.470915
v 0.105043 0.129589 -0.470915
v -0.171712 0.859460 0.491223
v -0.171712 0.859460 0.582803
v -0.171712 0.116117 0.582803
v -0.171712 0.024537 0.582803
v -0.171712 0.024537 -0.491222
v -0.171712 0.024537 -0.582803
v -0.171712 0.767879 -0.582803
v -0.171712 0.859460 -0.582803
v -0.171712 0.859460 -0.491222
v -0.171712 0.024537 0.491223
v -0.171712 0.767879 0.582803
v -0.171712 0.116117 -0.582803
v -0.171712 0.817713 0.245611
v -0.171712 0.817713 0.291402
v -0.171712 0.148705 0.291402
v -0.171712 0.066283 0.291402
v -0.171712 0.066283 -0.245611
v -0.171712 0.066283 -0.291402
v -0.171712 0.735291 -0.291402
v -0.171712 0.817713 -0.291402
v -0.171712 0.817713 -0.245611
v -0.171712 0.066283 0.245611
v -0.171712 0.735291 0.291402
v -0.171712 0.148705 -0.291402
v -0.644723 0.215934 0.175334
v -0.644723 0.265527 0.175334
v -0.644723 0.668062 0.175334
v -0.644723 0.668062 0.147782
v -0.500776 0.817713 0.245611
v -0.500776 0.817713 0.291402
v -0.500776 0.148705 0.291402
v -0.500776 0.066283 0.291402
v -0.500776 0.066283 -0.245611
v -0.500776 0.066283 -0.291402
v -0.500776 0.735291 -0.291402
v -0.500776 0.817713 -0.291402
v -0.500776 0.817713 -0.245611
v -0.500776 0.066283 0.245611
v -0.500776 0.735291 0.291402
v -0.500776 0.148705 -0.291402
v -0.691386 0.369726 0.056052
v -0.691386 0.385580 0.056052
v -0.691386 0.514270 0.056052
v -0.691386 0.514270 0.047244
v -0.644723 0.215934 -0.147781
v -0.644723 0.215934 -0.175332
v -0.644723 0.618469 -0.175332
v -0.644723 0.668062 -0.175332
v -0.644723 0.668062 -0.147781
v -0.644723 0.215934 0.147782
v -0.644723 0.618469 0.175334
v -0.644723 0.265527 -0.175332
v -0.691386 0.369726 -0.047246
v -0.691386 0.369726 -0.056055
v -0.691386 0.498415 -0.056055
v -0.691386 0.514270 -0.056055
v -0.691386 0.514270 -0.047246
v -0.691386 0.369726 0.047244
v -0.691386 0.498415 0.056052
v -0.691386 0.385580 -0.056055
v -0.690183 0.392466 0.041478
v -0.690183 0.491529 0.041478
v -0.690183 0.392466 -0.041480
v -0.690183 0.491529 -0.041480
v -0.171712 -0.005369 0.245611
v -0.171712 -0.005369 -0.245611
v -0.500776 -0.005369 -0.245611
v -0.500776 -0.005369 0.245611
vt 0.777132 0.550554
vt 0.777707 0.554163
vt 0.777132 0.554163
vt 0.771025 0.561123
vt 0.770449 0.560616
vt 0.771025 0.560616
vt 0.777132 0.550047
vt 0.777707 0.550554
vt 0.769553 0.555177
vt 0.768977 0.554670
vt 0.769553 0.554670
vt 0.769553 0.561123
vt 0.768977 0.560616
vt 0.769553 0.560616
vt 0.770449 0.555177
vt 0.771025 0.555177
vt 0.776227 0.550242
vt 0.772500 0.555213
vt 0.771994 0.550438
vt 0.772500 0.550438
vt 0.772500 0.550438
vt 0.773005 0.555213
vt 0.772500 0.555213
vt 0.776227 0.555177
vt 0.776743 0.554670
vt 0.776967 0.555509
vt 0.776743 0.561123
vt 0.776227 0.560616
vt 0.776967 0.560284
vt 0.780189 0.560284
vt 0.780928 0.555177
vt 0.780928 0.560616
vt 0.780413 0.561123
vt 0.780928 0.561123
vt 0.780413 0.554670
vt 0.780928 0.554670
vt 0.780189 0.555509
vt 0.777707 0.554670
vt 0.777132 0.554670
vt 0.768402 0.556501
vt 0.768977 0.557008
vt 0.768402 0.557008
vt 0.768402 0.560616
vt 0.768977 0.561123
vt 0.768402 0.561123
vt 0.768977 0.560616
vt 0.768977 0.555177
vt 0.778448 0.554670
vt 0.777944 0.551502
vt 0.778448 0.551502
vt 0.770449 0.554670
vt 0.771025 0.554670
vt 0.777939 0.547692
vt 0.778444 0.550860
vt 0.777939 0.550860
vt 0.767497 0.560929
vt 0.767497 0.560464
vt 0.767497 0.557160
vt 0.770449 0.555406
vt 0.770449 0.560387
vt 0.771922 0.560387
vt 0.770449 0.560852
vt 0.776227 0.550706
vt 0.776227 0.554475
vt 0.776227 0.554011
vt 0.767497 0.556695
vt 0.772394 0.561123
vt 0.775587 0.559646
vt 0.775755 0.561123
vt 0.771922 0.560659
vt 0.772137 0.559646
vt 0.771922 0.561123
vt 0.771922 0.555678
vt 0.772137 0.556691
vt 0.772137 0.556923
vt 0.775755 0.555213
vt 0.776012 0.556691
vt 0.775587 0.556691
vt 0.772394 0.555213
vt 0.771922 0.555213
vt 0.776227 0.560659
vt 0.776012 0.556923
vt 0.776227 0.555678
vt 0.772562 0.559646
vt 0.776012 0.559646
vt 0.776012 0.559414
vt 0.776227 0.555213
vt 0.770449 0.554942
vt 0.771922 0.554942
vt 0.771922 0.555406
vt 0.771922 0.560852
vt 0.780928 0.554670
vt 0.779237 0.554252
vt 0.780928 0.554252
vt 0.780928 0.551278
vt 0.779237 0.550860
vt 0.780928 0.550860
vt 0.771922 0.550628
vt 0.770228 0.548137
vt 0.771922 0.548137
vt 0.771922 0.554670
vt 0.770230 0.554252
vt 0.771922 0.554252
vt 0.771922 0.550860
vt 0.770228 0.550628
vt 0.770228 0.547905
vt 0.771922 0.547905
vt 0.771922 0.551278
vt 0.770230 0.550860
vt 0.779237 0.551278
vt 0.768977 0.556501
vt 0.768608 0.554838
vt 0.768977 0.554838
vt 0.772137 0.559414
vt 0.772562 0.556691
vt 0.776227 0.561123
vt 0.778448 0.553911
vt 0.778448 0.553660
vt 0.778448 0.551619
vt 0.769437 0.550132
vt 0.769437 0.548633
vt 0.769441 0.553911
vt 0.769441 0.553660
vt 0.769437 0.550271
vt 0.769437 0.548493
vt 0.770230 0.551278
vt 0.769441 0.551619
vt 0.778448 0.551870
vt 0.780137 0.548137
vt 0.780928 0.550132
vt 0.780137 0.550628
vt 0.778444 0.547905
vt 0.778444 0.548137
vt 0.778444 0.550628
vt 0.780137 0.550860
vt 0.778444 0.550860
vt 0.776227 0.548397
vt 0.775612 0.548925
vt 0.776227 0.548145
vt 0.774561 0.550438
vt 0.775567 0.549658
vt 0.776085 0.550438
vt 0.774419 0.548397
vt 0.775034 0.548925
vt 0.775034 0.549006
vt 0.775034 0.549658
vt 0.775079 0.549658
vt 0.775612 0.549658
vt 0.776227 0.550438
vt 0.774419 0.550186
vt 0.774419 0.550438
vt 0.775612 0.549578
vt 0.775612 0.549006
vt 0.774561 0.548145
vt 0.775567 0.548925
vt 0.775079 0.548925
vt 0.775034 0.549578
vt 0.780928 0.548493
vt 0.780928 0.548633
vt 0.780928 0.550271
vt 0.769441 0.551870
vt 0.778021 0.551000
vt 0.778448 0.551502
vt 0.778021 0.551502
vt 0.775109 0.549040
vt 0.775109 0.549543
vt 0.775537 0.549040
vt 0.775537 0.549543
vt 0.776227 0.550186
vt 0.776085 0.548145
vt 0.774419 0.548145
vt 0.299517 0.688931
vt 0.300256 0.687836
vt 0.300256 0.688931
vt 0.769441 0.554670
vt 0.767748 0.552179
vt 0.769441 0.552179
vt 0.768698 0.548369
vt 0.769067 0.550860
vt 0.768698 0.550860
vt 0.769437 0.550860
vt 0.769067 0.548369
vt 0.769437 0.548369
vt 0.774049 0.548775
vt 0.774419 0.550438
vt 0.774049 0.550438
vt 0.770449 0.561123
vt 0.777707 0.550047
vt 0.768977 0.561123
vt 0.771994 0.555213
vt 0.773005 0.550438
vt 0.776227 0.554670
vt 0.776227 0.561123
vt 0.768977 0.556501
vt 0.777944 0.554670
vt 0.778444 0.547692
vt 0.779237 0.554670
vt 0.770230 0.554670
vt 0.768608 0.556501
vt 0.780137 0.547905
vt 0.778448 0.551000
vt 0.299517 0.687836
vt 0.767748 0.554670
vt 0.769067 0.548369
vt 0.769067 0.550860
vt 0.774419 0.548775
vn 0.0000 0.0000 1.0000
vn 0.0000 -1.0000 0.0000
vn 0.0000 1.0000 0.0000
vn -0.2979 0.0000 0.9546
vn 0.9989 0.0326 0.0326
vn 0.9989 0.0326 -0.0326
vn 0.9989 0.0475 0.0000
vn 0.9989 -0.0475 0.0000
vn 1.0000 0.0000 0.0000
vn 0.9991 0.0000 -0.0412
vn 0.9991 0.0000 0.0412
vn 0.0000 0.0000 -1.0000
vn -0.2979 0.0000 -0.9546
vn -0.2181 0.9759 0.0000
vn -0.2181 -0.9759 0.0000
vn -1.0000 0.0000 0.0000
vn -0.6277 0.0000 0.7785
vn -0.7207 0.6932 0.0000
vn -0.6277 0.0000 -0.7785
vn -0.7207 -0.6932 0.0000
vn -0.9313 0.0000 0.3643
vn -0.9569 0.2903 0.0000
vn -0.9313 0.0000 -0.3643
vn -0.9569 -0.2903 0.0000
vn -0.9966 0.0000 0.0822
vn -0.9986 -0.0528 0.0000
vn -0.9966 0.0000 -0.0822
vn -0.9986 0.0528 0.0000
vn 0.9989 -0.0326 -0.0326
vn 0.9989 -0.0326 0.0326
vn -0.9972 -0.0362 0.0652
vn -0.9972 -0.0362 -0.0652
vn -0.9972 0.0362 -0.0652
vn -0.9972 0.0362 0.0652
s off
f 13/1/1 29/2/1 9/3/1
f 4/4/2 21/5/2 7/6/2
f 2/7/1 19/8/1 13/1/1
f 8/9/3 24/10/3 3/11/3
f 1/12/3 17/13/3 5/14/3
f 7/6/2 26/15/2 6/16/2
f 13/1/4 36/17/4 2/7/4
f 12/18/2 27/19/2 11/20/2
f 15/21/3 32/22/3 16/23/3
f 21/24/5 30/25/5 32/26/5
f 19/27/6 26/28/6 31/29/6
f 26/28/7 32/26/7 31/29/7
f 27/30/8 25/31/8 17/32/8
f 29/33/9 17/32/9 18/34/9
f 25/31/9 23/35/9 24/36/9
f 19/27/10 27/30/10 29/33/10
f 32/26/11 23/35/11 28/37/11
f 9/3/1 18/38/1 1/39/1
f 3/40/12 23/41/12 10/42/12
f 14/43/12 22/44/12 4/45/12
f 10/42/12 30/46/12 14/43/12
f 5/14/3 25/47/3 8/9/3
f 11/48/12 31/49/12 15/50/12
f 6/16/2 20/51/2 2/52/2
f 16/53/1 28/54/1 12/55/1
f 14/43/13 38/56/13 44/57/13
f 10/42/13 44/57/13 39/58/13
f 5/14/14 41/59/14 33/60/14
f 6/16/15 37/61/15 7/6/15
f 5/14/14 34/62/14 1/12/14
f 9/3/4 35/63/4 13/1/4
f 9/3/4 34/64/4 43/65/4
f 10/42/13 40/66/13 3/40/13
f 44/67/16 51/68/16 39/69/16
f 37/70/16 50/71/16 38/72/16
f 42/73/16 48/74/16 54/75/16
f 43/76/16 46/77/16 55/78/16
f 35/79/16 48/74/16 36/80/16
f 41/81/16 45/82/16 33/83/16
f 44/67/16 50/71/16 56/84/16
f 41/81/16 52/85/16 53/86/16
f 33/83/16 46/77/16 34/87/16
f 8/9/14 40/88/14 41/59/14
f 6/16/15 36/89/15 42/90/15
f 7/6/15 38/91/15 4/4/15
f 46/92/1 71/93/1 55/94/1
f 47/95/1 64/96/1 48/97/1
f 53/98/3 61/99/3 45/100/3
f 50/101/12 72/102/12 56/103/12
f 52/104/3 69/105/3 53/98/3
f 45/100/3 62/106/3 46/107/3
f 51/108/12 68/109/12 52/104/12
f 55/94/1 63/110/1 47/95/1
f 70/111/1 97/112/1 54/113/1
f 42/73/16 49/114/16 37/70/16
f 43/76/16 47/115/16 35/79/16
f 39/69/16 52/85/16 40/116/16
f 71/93/17 59/117/17 83/118/17
f 63/110/17 57/119/17 64/96/17
f 61/99/18 81/120/18 60/121/18
f 72/102/19 78/122/19 84/123/19
f 69/105/18 80/124/18 81/120/18
f 61/99/18 59/125/18 62/106/18
f 67/126/19 80/127/19 68/109/19
f 63/110/17 83/118/17 58/128/17
f 70/129/20 77/130/20 65/131/20
f 48/132/2 70/129/2 54/133/2
f 49/134/2 66/135/2 50/136/2
f 56/103/12 67/126/12 51/108/12
f 58/137/21 73/138/21 57/139/21
f 81/140/22 76/141/22 60/142/22
f 84/143/23 86/144/23 92/145/23
f 81/140/22 88/146/22 89/147/22
f 60/142/22 75/148/22 59/149/22
f 79/150/23 88/146/23 80/151/23
f 58/137/21 91/152/21 74/153/21
f 77/154/24 90/155/24 85/156/24
f 84/143/23 87/157/23 79/150/23
f 70/129/20 57/158/20 82/159/20
f 65/131/20 78/160/20 66/135/20
f 72/102/19 79/161/19 67/126/19
f 93/162/9 96/163/9 94/164/9
f 87/157/16 89/147/16 88/146/16
f 76/141/16 91/152/16 75/148/16
f 74/153/16 90/155/16 73/138/16
f 85/156/16 92/145/16 86/144/16
f 95/165/25 87/157/25 92/145/25
f 96/166/26 76/141/26 89/147/26
f 93/167/27 91/152/27 94/168/27
f 93/167/28 85/156/28 90/155/28
f 83/169/21 75/148/21 91/152/21
f 82/170/24 73/138/24 90/155/24
f 77/154/24 86/144/24 78/171/24
f 15/172/9 12/173/9 11/174/9
f 97/175/2 99/176/2 98/177/2
f 65/178/16 100/179/16 70/180/16
f 54/181/9 98/182/9 49/183/9
f 49/184/12 99/185/12 65/186/12
f 13/1/1 19/8/1 29/2/1
f 4/4/2 22/187/2 21/5/2
f 2/7/1 20/188/1 19/8/1
f 8/9/3 25/47/3 24/10/3
f 1/12/3 18/189/3 17/13/3
f 7/6/2 21/5/2 26/15/2
f 13/1/4 35/63/4 36/17/4
f 12/18/2 28/190/2 27/19/2
f 15/21/3 31/191/3 32/22/3
f 21/24/9 22/192/9 30/25/9
f 19/27/9 20/193/9 26/28/9
f 26/28/7 21/24/7 32/26/7
f 27/30/8 28/37/8 25/31/8
f 29/33/29 27/30/29 17/32/29
f 25/31/30 28/37/30 23/35/30
f 19/27/10 31/29/10 27/30/10
f 32/26/11 30/25/11 23/35/11
f 9/3/1 29/2/1 18/38/1
f 3/40/12 24/194/12 23/41/12
f 14/43/12 30/46/12 22/44/12
f 10/42/12 23/41/12 30/46/12
f 5/14/3 17/13/3 25/47/3
f 11/48/12 27/195/12 31/49/12
f 6/16/2 26/15/2 20/51/2
f 16/53/1 32/196/1 28/54/1
f 14/43/13 4/45/13 38/56/13
f 10/42/13 14/43/13 44/57/13
f 5/14/14 8/9/14 41/59/14
f 6/16/15 42/90/15 37/61/15
f 5/14/14 33/60/14 34/62/14
f 9/3/4 43/65/4 35/63/4
f 9/3/4 1/39/4 34/64/4
f 10/42/13 39/58/13 40/66/13
f 44/67/16 56/84/16 51/68/16
f 37/70/16 49/114/16 50/71/16
f 42/73/16 36/80/16 48/74/16
f 43/76/16 34/87/16 46/77/16
f 35/79/16 47/115/16 48/74/16
f 41/81/16 53/86/16 45/82/16
f 44/67/16 38/72/16 50/71/16
f 41/81/16 40/116/16 52/85/16
f 33/83/16 45/82/16 46/77/16
f 8/9/14 3/11/14 40/88/14
f 6/16/15 2/52/15 36/89/15
f 7/6/15 37/61/15 38/91/15
f 46/92/1 62/197/1 71/93/1
f 47/95/1 63/110/1 64/96/1
f 53/98/3 69/105/3 61/99/3
f 50/101/12 66/198/12 72/102/12
f 52/104/3 68/109/3 69/105/3
f 45/100/3 61/99/3 62/106/3
f 51/108/12 67/126/12 68/109/12
f 55/94/1 71/93/1 63/110/1
f 70/111/1 100/199/1 97/112/1
f 42/73/16 54/75/16 49/114/16
f 43/76/16 55/78/16 47/115/16
f 39/69/16 51/68/16 52/85/16
f 71/93/17 62/197/17 59/117/17
f 63/110/17 58/128/17 57/119/17
f 61/99/18 69/105/18 81/120/18
f 72/102/19 66/198/19 78/122/19
f 69/105/18 68/109/18 80/124/18
f 61/99/18 60/121/18 59/125/18
f 67/126/19 79/161/19 80/127/19
f 63/110/17 71/93/17 83/118/17
f 70/129/20 82/159/20 77/130/20
f 48/132/2 64/200/2 70/129/2
f 49/134/2 65/131/2 66/135/2
f 56/103/12 72/102/12 67/126/12
f 58/137/21 74/153/21 73/138/21
f 81/140/22 89/147/22 76/141/22
f 84/143/23 78/171/23 86/144/23
f 81/140/22 80/151/22 88/146/22
f 60/142/22 76/141/22 75/148/22
f 79/150/23 87/157/23 88/146/23
f 58/137/21 83/169/21 91/152/21
f 77/154/24 82/170/24 90/155/24
f 84/143/23 92/145/23 87/157/23
f 70/129/20 64/200/20 57/158/20
f 65/131/20 77/130/20 78/160/20
f 72/102/19 84/123/19 79/161/19
f 93/162/9 95/201/9 96/163/9
f 87/157/31 96/166/31 89/147/31
f 76/141/32 94/168/32 91/152/32
f 74/153/33 93/167/33 90/155/33
f 85/156/34 95/165/34 92/145/34
f 95/165/25 96/166/25 87/157/25
f 96/166/26 94/168/26 76/141/26
f 93/167/27 74/153/27 91/152/27
f 93/167/28 95/165/28 85/156/28
f 83/169/21 59/149/21 75/148/21
f 82/170/24 57/139/24 73/138/24
f 77/154/24 85/156/24 86/144/24
f 15/172/9 16/202/9 12/173/9
f 97/175/2 100/203/2 99/176/2
f 65/178/16 99/204/16 100/179/16
f 54/181/9 97/205/9 98/182/9
f 49/184/12 98/206/12 99/185/12
