# Blender v2.80 (sub 75) OBJ File: 'nonEuclidianScene.blend'
# www.blender.org
o Path_Root_Plane.026
v -0.942297 0.000000 0.950973
v 0.955927 0.000000 0.950973
v -0.942297 0.000000 -0.955404
v 0.955927 0.000000 -0.955404
v -0.942297 0.000000 -0.071037
v 0.955927 0.000000 -0.071037
v -0.942297 0.000000 0.068649
v 0.955927 0.000000 0.068649
v -0.066058 0.000000 0.950973
v -0.066058 0.000000 -0.955404
v -0.066058 0.000000 -0.071037
v -0.066058 0.000000 0.068649
v 0.079352 0.000000 0.950973
v 0.079352 0.000000 -0.955404
v 0.079352 0.000000 -0.071037
v 0.079352 0.000000 0.068649
v -0.846004 0.000000 -0.955404
v -0.846004 0.000000 -0.071037
v -0.846004 0.000000 0.068649
v -0.846004 0.000000 0.950973
v 0.858462 0.000000 0.950973
v 0.858462 0.000000 -0.955404
v 0.858462 0.000000 -0.071037
v 0.858462 0.000000 0.068649
v 0.955927 0.000000 -0.863536
v -0.942297 0.000000 -0.863536
v -0.066058 0.000000 -0.863536
v 0.079352 0.000000 -0.863536
v -0.846004 0.000000 -0.863536
v 0.858462 0.000000 -0.863536
v -0.942297 0.000000 0.854026
v 0.955927 0.000000 0.854026
v -0.066058 0.000000 0.854026
v 0.079352 0.000000 0.854026
v -0.846004 0.000000 0.854026
v 0.858462 0.000000 0.854026
v -0.066058 0.006223 0.068649
v -0.846004 0.006223 0.068649
v -0.066058 0.006223 0.854026
v -0.846004 0.006223 0.854026
v -0.077757 0.006223 0.080430
v -0.834305 0.006223 0.080430
v -0.077757 0.006223 0.842246
v -0.834305 0.006223 0.842246
v -0.077757 -0.005929 0.080430
v -0.834305 -0.005929 0.080430
v -0.077757 -0.005929 0.842246
v -0.834305 -0.005929 0.842246
v 0.079352 0.006223 0.068649
v 0.858462 0.006223 0.068649
v 0.079352 0.006223 0.854026
v 0.858462 0.006223 0.854026
v 0.091039 0.006223 0.080430
v 0.846775 0.006223 0.080430
v 0.091039 0.006223 0.842245
v 0.846775 0.006223 0.842245
v 0.091039 -0.005520 0.080430
v 0.846775 -0.005520 0.080430
v 0.091039 -0.005520 0.842245
v 0.846775 -0.005520 0.842245
v 0.079352 0.006223 -0.071037
v 0.858462 0.006223 -0.071037
v 0.079352 0.006223 -0.863536
v 0.858462 0.006223 -0.863536
v 0.091039 0.006223 -0.082925
v 0.846775 0.006223 -0.082925
v 0.091039 0.006223 -0.851648
v 0.846775 0.006223 -0.851648
v 0.091039 -0.004816 -0.082925
v 0.846775 -0.004816 -0.082925
v 0.091039 -0.004816 -0.851648
v 0.846775 -0.004816 -0.851648
v -0.066058 0.006223 -0.071037
v -0.846004 0.006223 -0.071037
v -0.066058 0.006223 -0.863536
v -0.846004 0.006223 -0.863536
v -0.077757 0.006223 -0.082925
v -0.834305 0.006223 -0.082925
v -0.077757 0.006223 -0.851648
v -0.834305 0.006223 -0.851648
v -0.077757 -0.007959 -0.082925
v -0.834305 -0.007959 -0.082925
v -0.077757 -0.007959 -0.851648
v -0.834305 -0.007959 -0.851648
v -0.942297 0.006223 0.950973
v 0.955927 0.006223 0.950973
v -0.942297 0.006223 -0.955404
v 0.955927 0.006223 -0.955404
v -0.942297 0.006223 -0.071037
v 0.955927 0.006223 -0.071037
v -0.942297 0.006223 0.068649
v 0.955927 0.006223 0.068649
v -0.066058 0.006223 0.950973
v -0.066058 0.006223 -0.955404
v 0.079352 0.006223 0.950973
v 0.079352 0.006223 -0.955404
v -0.846004 0.006223 -0.955404
v -0.846004 0.006223 0.950973
v 0.858462 0.006223 0.950973
v 0.858462 0.006223 -0.955404
v 0.955927 0.006223 -0.863536
v -0.942297 0.006223 -0.863536
v -0.942297 0.006223 0.854026
v 0.955927 0.006223 0.854026
v -0.952836 0.006223 0.961562
v 0.966469 0.006223 0.961562
v -0.952836 0.006223 -0.965987
v 0.966469 0.006223 -0.965987
v -0.952836 0.006223 -0.071798
v 0.966469 0.006223 -0.071798
v -0.952836 0.006223 0.069440
v 0.966469 0.006223 0.069440
v -0.066865 0.006223 0.961562
v -0.066865 0.006223 -0.965987
v 0.080159 0.006223 0.961562
v 0.080159 0.006223 -0.965987
v -0.855473 0.006223 -0.965987
v -0.855473 0.006223 0.961562
v 0.867922 0.006223 0.961562
v 0.867922 0.006223 -0.965987
v 0.966469 0.006223 -0.873098
v -0.952836 0.006223 -0.873098
v -0.952836 0.006223 0.863539
v 0.966469 0.006223 0.863539
v -0.952836 -0.003685 0.961562
v 0.966469 -0.003685 0.961562
v -0.952836 -0.003685 -0.965987
v 0.966469 -0.003685 -0.965987
v -0.952836 -0.003685 -0.071798
v 0.966469 -0.003685 -0.071798
v -0.952836 -0.003685 0.069440
v 0.966469 -0.003685 0.069440
v -0.066865 -0.003685 0.961562
v -0.066865 -0.003685 -0.965987
v 0.080159 -0.003685 0.961562
v 0.080159 -0.003685 -0.965987
v -0.855473 -0.003685 -0.965987
v -0.855473 -0.003685 0.961562
v 0.867922 -0.003685 0.961562
v 0.867922 -0.003685 -0.965987
v 0.966469 -0.003685 -0.873098
v -0.952836 -0.003685 -0.873098
v -0.952836 -0.003685 0.863539
v 0.966469 -0.003685 0.863539
vt -4.355796 -3.924172
vt -3.858837 -4.392594
vt -3.858837 -3.924172
vt -4.355792 0.828877
vt -3.858834 0.116638
vt -3.858834 0.828877
vt -4.355791 4.833374
vt -3.858834 4.833374
vt 0.855130 0.828876
vt 4.831939 0.116638
vt 4.831936 0.828877
vt 0.855130 -3.924173
vt 4.831936 -4.392597
vt 4.831936 -3.924174
vt 0.113712 4.833375
vt 0.855130 4.833374
vt 0.113709 0.828876
vt 0.855130 0.116637
vt 0.113709 -3.924173
vt 0.855130 -4.392595
vt 5.322921 -4.392597
vt 5.322924 -3.924175
vt 5.322924 0.116638
vt 5.322921 0.828877
vt 4.831936 4.833376
vt 5.322921 4.833377
vt 0.113709 0.116637
vt 0.113709 -4.392595
vt -4.355792 0.116638
vt -3.858834 5.327688
vt 0.113712 5.327688
vt 4.831933 5.327690
vt 5.322921 5.327690
vt 0.855130 5.327688
vt -4.355791 5.327688
vt 0.741394 0.288086
vt 0.741391 0.287881
vt 0.741394 0.287876
vt 0.741189 0.287871
vt 0.741185 0.287867
vt 0.741189 0.288073
vt 0.741185 0.288077
vt 0.741390 0.288083
vt 0.741193 0.288069
vt 0.741387 0.287884
vt 0.741193 0.287875
vt 0.741386 0.288078
vt 0.741197 0.287878
vt 0.741382 0.288075
vt 0.741196 0.288066
vt 0.741383 0.287888
vt 0.741077 0.287743
vt 0.740873 0.287738
vt 0.740868 0.287734
vt 0.740868 0.287944
vt 0.741073 0.287950
vt 0.741077 0.287954
vt 0.740872 0.287940
vt 0.741073 0.287748
vt 0.741069 0.287751
vt 0.741069 0.287945
vt 0.740876 0.287742
vt 0.740876 0.287937
vt 0.740880 0.287746
vt 0.740879 0.287933
vt 0.741066 0.287755
vt 0.741065 0.287942
vt 0.741605 0.287876
vt 0.741399 0.287871
vt 0.741395 0.287867
vt 0.741399 0.288073
vt 0.741395 0.288077
vt 0.741600 0.288083
vt 0.741605 0.288086
vt 0.741601 0.287880
vt 0.741403 0.288070
vt 0.741597 0.288078
vt 0.741403 0.287875
vt 0.741597 0.287883
vt 0.741407 0.287878
vt 0.741593 0.287887
vt 0.741406 0.288066
vt 0.741592 0.288075
vt 0.741097 0.288153
vt 0.741093 0.287946
vt 0.741097 0.287941
vt 0.740886 0.287951
vt 0.740889 0.288159
vt 0.740886 0.288163
vt 0.741093 0.288150
vt 0.740890 0.287955
vt 0.741089 0.288146
vt 0.740894 0.287959
vt 0.740894 0.288155
vt 0.741089 0.287950
vt 0.740898 0.287962
vt 0.740897 0.288150
vt 0.741086 0.287954
vt 0.741085 0.288143
vt 0.741116 0.288173
vt 0.741117 0.288143
vt 0.741119 0.288145
vt 0.741196 0.288594
vt 0.741125 0.288408
vt 0.741127 0.288408
vt 0.741114 0.288358
vt 0.741117 0.288358
vt 0.741147 0.288134
vt 0.741316 0.288076
vt 0.741317 0.288079
vt 0.741377 0.288061
vt 0.741591 0.288071
vt 0.741590 0.288073
vt 0.741624 0.288087
vt 0.741625 0.288125
vt 0.741622 0.288125
vt 0.741388 0.288583
vt 0.741348 0.288595
vt 0.741347 0.288593
vt 0.741587 0.288534
vt 0.741558 0.288544
vt 0.741557 0.288542
vt 0.741377 0.288058
vt 0.741626 0.288086
vt 0.741388 0.288586
vt 0.741238 0.288616
vt 0.741238 0.288615
vt 0.741591 0.288505
vt 0.741589 0.288536
vt 0.741604 0.288382
vt 0.741593 0.288506
vt 0.741114 0.288173
vt 0.741146 0.288132
vt 0.741211 0.288621
vt 0.741212 0.288619
vt 0.741608 0.288333
vt 0.741606 0.288383
vt 0.741193 0.288595
vt 0.741611 0.288333
vt 0.741609 0.288383
vt 0.741111 0.288170
vt 0.741114 0.288141
vt 0.741377 0.288054
vt 0.741595 0.288068
vt 0.741121 0.288409
vt 0.741315 0.288073
vt 0.741562 0.288546
vt 0.741111 0.288358
vt 0.741348 0.288597
vt 0.741629 0.288122
vt 0.741595 0.288508
vt 0.741389 0.288588
vt 0.741630 0.288083
vt 0.741192 0.288599
vt 0.741614 0.288333
vt 0.741592 0.288538
vt 0.741236 0.288619
vt 0.741210 0.288625
vt 0.741142 0.288130
vt 0.741390 0.288591
vt 0.741634 0.288081
vt 0.741188 0.288601
vt 0.741618 0.288333
vt 0.741594 0.288540
vt 0.741237 0.288621
vt 0.741108 0.288358
vt 0.741208 0.288628
vt 0.741141 0.288126
vt 0.741611 0.288383
vt 0.741111 0.288138
vt 0.741596 0.288064
vt 0.741118 0.288410
vt 0.741313 0.288069
vt 0.741563 0.288550
vt 0.741108 0.288170
vt 0.741348 0.288599
vt 0.741633 0.288122
vt 0.741376 0.288049
vt 0.741597 0.288508
vt -4.355796 -4.392594
vn 0.0000 1.0000 0.0000
vn 1.0000 -0.0000 0.0000
vn 0.0000 -0.0000 1.0000
vn -1.0000 -0.0001 0.0000
vn 0.0000 -0.0000 -1.0000
vn -1.0000 0.0000 0.0000
s off
f 25/1/1 22/2/1 30/3/1
f 8/4/1 23/5/1 24/6/1
f 32/7/1 24/6/1 36/8/1
f 12/9/1 18/10/1 19/11/1
f 27/12/1 17/13/1 29/14/1
f 34/15/1 12/9/1 33/16/1
f 16/17/1 11/18/1 12/9/1
f 28/19/1 10/20/1 27/12/1
f 29/14/1 3/21/1 26/22/1
f 19/11/1 5/23/1 7/24/1
f 35/25/1 7/24/1 31/26/1
f 24/6/1 15/27/1 16/17/1
f 30/3/1 14/28/1 28/19/1
f 18/10/1 26/22/1 5/23/1
f 15/27/1 27/12/1 11/18/1
f 6/29/1 30/3/1 23/5/1
f 21/30/1 34/15/1 13/31/1
f 20/32/1 31/26/1 1/33/1
f 13/31/1 33/16/1 9/34/1
f 9/34/1 35/25/1 20/32/1
f 2/35/1 36/8/1 21/30/1
f 12/36/2 39/37/2 33/38/2
f 33/38/3 40/39/3 35/40/3
f 35/40/4 38/41/4 19/42/4
f 19/42/5 37/43/5 12/36/5
f 40/39/1 42/44/1 38/41/1
f 37/43/1 43/45/1 39/37/1
f 39/37/1 44/46/1 40/39/1
f 38/41/1 41/47/1 37/43/1
f 43/45/5 48/48/5 44/46/5
f 42/44/3 45/49/3 41/47/3
f 44/46/2 46/50/2 42/44/2
f 41/47/6 47/51/6 43/45/6
f 36/52/3 51/53/3 34/54/3
f 16/55/5 50/56/5 24/57/5
f 34/54/6 49/58/6 16/55/6
f 24/57/2 52/59/2 36/52/2
f 50/56/1 56/60/1 52/59/1
f 49/58/1 54/61/1 50/56/1
f 52/59/1 55/62/1 51/53/1
f 51/53/1 53/63/1 49/58/1
f 56/60/5 59/64/5 55/62/5
f 55/62/2 57/65/2 53/63/2
f 54/61/6 60/66/6 56/60/6
f 53/63/3 58/67/3 54/61/3
f 28/68/5 64/69/5 30/70/5
f 30/70/2 62/71/2 23/72/2
f 23/72/3 61/73/3 15/74/3
f 15/74/6 63/75/6 28/68/6
f 64/69/1 66/76/1 62/71/1
f 62/71/1 65/77/1 61/73/1
f 63/75/1 68/78/1 64/69/1
f 61/73/1 67/79/1 63/75/1
f 67/79/3 72/80/3 68/78/3
f 65/77/2 71/81/2 67/79/2
f 68/78/6 70/82/6 66/76/6
f 66/76/5 69/83/5 65/77/5
f 18/84/6 76/85/6 29/86/6
f 27/87/2 73/88/2 11/89/2
f 11/89/3 74/90/3 18/84/3
f 29/86/5 75/91/5 27/87/5
f 73/88/1 78/92/1 74/90/1
f 76/85/1 79/93/1 75/91/1
f 75/91/1 77/94/1 73/88/1
f 74/90/1 80/95/1 76/85/1
f 80/95/3 83/96/3 79/93/3
f 79/93/6 81/97/6 77/94/6
f 78/92/2 84/98/2 80/95/2
f 77/94/5 82/99/5 78/92/5
f 17/100/3 87/101/3 3/102/3
f 22/103/3 96/104/3 14/105/3
f 14/105/3 94/106/3 10/107/3
f 26/108/2 89/109/2 5/110/2
f 7/111/2 103/112/2 31/113/2
f 1/114/5 98/115/5 20/116/5
f 8/117/6 90/118/6 6/119/6
f 2/120/6 104/121/6 32/122/6
f 5/110/2 91/123/2 7/111/2
f 31/113/2 85/124/2 1/114/2
f 32/122/6 92/125/6 8/117/6
f 6/119/6 101/126/6 25/127/6
f 21/128/5 86/129/5 2/120/5
f 13/130/5 99/131/5 21/128/5
f 10/107/3 97/132/3 17/100/3
f 3/102/2 102/133/2 26/108/2
f 25/127/6 88/134/6 4/135/6
f 9/136/5 95/137/5 13/130/5
f 4/135/3 100/138/3 22/103/3
f 20/116/5 93/139/5 9/136/5
f 93/139/1 115/140/1 95/137/1
f 87/101/1 117/141/1 107/142/1
f 103/112/1 111/143/1 123/144/1
f 100/138/1 116/145/1 96/104/1
f 102/133/1 109/146/1 89/109/1
f 86/129/1 124/147/1 104/121/1
f 97/132/1 114/148/1 117/141/1
f 92/125/1 110/149/1 90/118/1
f 85/124/1 118/150/1 98/115/1
f 91/123/1 109/146/1 111/143/1
f 99/131/1 115/140/1 119/151/1
f 104/121/1 112/152/1 92/125/1
f 85/124/1 123/144/1 105/153/1
f 88/134/1 120/154/1 100/138/1
f 98/115/1 113/155/1 93/139/1
f 86/129/1 119/151/1 106/156/1
f 101/126/1 110/149/1 121/157/1
f 94/106/1 116/145/1 114/148/1
f 88/134/1 121/157/1 108/158/1
f 87/101/1 122/159/1 102/133/1
f 124/147/2 132/160/2 112/152/2
f 123/144/6 125/161/6 105/153/6
f 108/158/5 140/162/5 120/154/5
f 118/150/3 133/163/3 113/155/3
f 119/151/3 126/164/3 106/156/3
f 110/149/2 141/165/2 121/157/2
f 116/145/5 134/166/5 114/148/5
f 121/157/2 128/167/2 108/158/2
f 107/142/6 142/168/6 122/159/6
f 113/155/3 135/169/3 115/140/3
f 117/141/5 127/170/5 107/142/5
f 111/143/6 143/171/6 123/144/6
f 120/154/5 136/172/5 116/145/5
f 122/159/6 129/173/6 109/146/6
f 106/156/2 144/174/2 124/147/2
f 114/148/5 137/175/5 117/141/5
f 112/152/2 130/176/2 110/149/2
f 105/153/3 138/177/3 118/150/3
f 109/146/6 131/178/6 111/143/6
f 115/140/3 139/179/3 119/151/3
f 25/1/1 4/180/1 22/2/1
f 8/4/1 6/29/1 23/5/1
f 32/7/1 8/4/1 24/6/1
f 12/9/1 11/18/1 18/10/1
f 27/12/1 10/20/1 17/13/1
f 34/15/1 16/17/1 12/9/1
f 16/17/1 15/27/1 11/18/1
f 28/19/1 14/28/1 10/20/1
f 29/14/1 17/13/1 3/21/1
f 19/11/1 18/10/1 5/23/1
f 35/25/1 19/11/1 7/24/1
f 24/6/1 23/5/1 15/27/1
f 30/3/1 22/2/1 14/28/1
f 18/10/1 29/14/1 26/22/1
f 15/27/1 28/19/1 27/12/1
f 6/29/1 25/1/1 30/3/1
f 21/30/1 36/8/1 34/15/1
f 20/32/1 35/25/1 31/26/1
f 13/31/1 34/15/1 33/16/1
f 9/34/1 33/16/1 35/25/1
f 2/35/1 32/7/1 36/8/1
f 12/36/2 37/43/2 39/37/2
f 33/38/3 39/37/3 40/39/3
f 35/40/6 40/39/6 38/41/6
f 19/42/5 38/41/5 37/43/5
f 40/39/1 44/46/1 42/44/1
f 37/43/1 41/47/1 43/45/1
f 39/37/1 43/45/1 44/46/1
f 38/41/1 42/44/1 41/47/1
f 43/45/5 47/51/5 48/48/5
f 42/44/3 46/50/3 45/49/3
f 44/46/2 48/48/2 46/50/2
f 41/47/6 45/49/6 47/51/6
f 36/52/3 52/59/3 51/53/3
f 16/55/5 49/58/5 50/56/5
f 34/54/6 51/53/6 49/58/6
f 24/57/2 50/56/2 52/59/2
f 50/56/1 54/61/1 56/60/1
f 49/58/1 53/63/1 54/61/1
f 52/59/1 56/60/1 55/62/1
f 51/53/1 55/62/1 53/63/1
f 56/60/5 60/66/5 59/64/5
f 55/62/2 59/64/2 57/65/2
f 54/61/6 58/67/6 60/66/6
f 53/63/3 57/65/3 58/67/3
f 28/68/5 63/75/5 64/69/5
f 30/70/2 64/69/2 62/71/2
f 23/72/3 62/71/3 61/73/3
f 15/74/6 61/73/6 63/75/6
f 64/69/1 68/78/1 66/76/1
f 62/71/1 66/76/1 65/77/1
f 63/75/1 67/79/1 68/78/1
f 61/73/1 65/77/1 67/79/1
f 67/79/3 71/81/3 72/80/3
f 65/77/2 69/83/2 71/81/2
f 68/78/6 72/80/6 70/82/6
f 66/76/5 70/82/5 69/83/5
f 18/84/6 74/90/6 76/85/6
f 27/87/2 75/91/2 73/88/2
f 11/89/3 73/88/3 74/90/3
f 29/86/5 76/85/5 75/91/5
f 73/88/1 77/94/1 78/92/1
f 76/85/1 80/95/1 79/93/1
f 75/91/1 79/93/1 77/94/1
f 74/90/1 78/92/1 80/95/1
f 80/95/3 84/98/3 83/96/3
f 79/93/6 83/96/6 81/97/6
f 78/92/2 82/99/2 84/98/2
f 77/94/5 81/97/5 82/99/5
f 17/100/3 97/132/3 87/101/3
f 22/103/3 100/138/3 96/104/3
f 14/105/3 96/104/3 94/106/3
f 26/108/2 102/133/2 89/109/2
f 7/111/2 91/123/2 103/112/2
f 1/114/5 85/124/5 98/115/5
f 8/117/6 92/125/6 90/118/6
f 2/120/6 86/129/6 104/121/6
f 5/110/2 89/109/2 91/123/2
f 31/113/2 103/112/2 85/124/2
f 32/122/6 104/121/6 92/125/6
f 6/119/6 90/118/6 101/126/6
f 21/128/5 99/131/5 86/129/5
f 13/130/5 95/137/5 99/131/5
f 10/107/3 94/106/3 97/132/3
f 3/102/2 87/101/2 102/133/2
f 25/127/6 101/126/6 88/134/6
f 9/136/5 93/139/5 95/137/5
f 4/135/3 88/134/3 100/138/3
f 20/116/5 98/115/5 93/139/5
f 93/139/1 113/155/1 115/140/1
f 87/101/1 97/132/1 117/141/1
f 103/112/1 91/123/1 111/143/1
f 100/138/1 120/154/1 116/145/1
f 102/133/1 122/159/1 109/146/1
f 86/129/1 106/156/1 124/147/1
f 97/132/1 94/106/1 114/148/1
f 92/125/1 112/152/1 110/149/1
f 85/124/1 105/153/1 118/150/1
f 91/123/1 89/109/1 109/146/1
f 99/131/1 95/137/1 115/140/1
f 104/121/1 124/147/1 112/152/1
f 85/124/1 103/112/1 123/144/1
f 88/134/1 108/158/1 120/154/1
f 98/115/1 118/150/1 113/155/1
f 86/129/1 99/131/1 119/151/1
f 101/126/1 90/118/1 110/149/1
f 94/106/1 96/104/1 116/145/1
f 88/134/1 101/126/1 121/157/1
f 87/101/1 107/142/1 122/159/1
f 124/147/2 144/174/2 132/160/2
f 123/144/6 143/171/6 125/161/6
f 108/158/5 128/167/5 140/162/5
f 118/150/3 138/177/3 133/163/3
f 119/151/3 139/179/3 126/164/3
f 110/149/2 130/176/2 141/165/2
f 116/145/5 136/172/5 134/166/5
f 121/157/2 141/165/2 128/167/2
f 107/142/6 127/170/6 142/168/6
f 113/155/3 133/163/3 135/169/3
f 117/141/5 137/175/5 127/170/5
f 111/143/6 131/178/6 143/171/6
f 120/154/5 140/162/5 136/172/5
f 122/159/6 142/168/6 129/173/6
f 106/156/2 126/164/2 144/174/2
f 114/148/5 134/166/5 137/175/5
f 112/152/2 132/160/2 130/176/2
f 105/153/3 125/161/3 138/177/3
f 109/146/6 129/173/6 131/178/6
f 115/140/3 135/169/3 139/179/3
