# Blender v2.80 (sub 75) OBJ File: 'nonEuclidianScene.blend'
# www.blender.org
o Short_Brick_Building_Root_Cube.112
v -1.000000 -1.000000 1.000000
v -1.000000 1.000000 1.000000
v -1.000000 -1.000000 -1.000000
v -1.000000 1.000000 -1.000000
v 1.000000 -1.000000 1.000000
v 1.000000 1.000000 1.000000
v 1.000000 -1.000000 -1.000000
v 1.000000 1.000000 -1.000000
v -1.070000 1.045455 1.070000
v -1.070000 1.045455 -1.070000
v 1.070000 1.045455 -1.070000
v 1.070000 1.045455 1.070000
v -1.000000 -1.000000 -0.511754
v -1.000000 1.000000 -0.511754
v 1.000000 -1.000000 -0.497019
v 1.000000 1.000000 -0.511754
v -1.070000 1.045455 -0.547577
v 1.070000 1.045455 -0.547577
v -1.000000 -1.000000 -0.211194
v 1.000000 1.000000 -0.211194
v 1.070000 1.045455 -0.225977
v -1.000000 1.000000 -0.211194
v 1.000000 -1.000000 -0.225929
v -1.070000 1.045455 -0.225977
v -1.000000 -0.544290 1.000000
v -1.000000 -0.544290 -1.000000
v 1.000000 -0.544290 -1.000000
v 1.000000 -0.544290 1.000000
v 1.000000 -0.584144 -0.497019
v -1.000000 -0.544290 -0.511754
v -1.000000 -0.544290 -0.211194
v 1.000000 -0.584144 -0.225929
v 0.522217 -1.000000 -0.211194
v 0.522217 -1.000000 -0.511754
v 0.522217 -0.544290 -0.511754
v 0.522217 -0.544290 -0.211194
vt 0.200985 1.352442
vt 0.000411 0.289043
vt 0.200985 0.289043
vt 0.817670 1.348965
vt -0.007641 0.284650
vt 0.817670 0.284651
vt 0.496861 1.345326
vt -0.004157 0.290929
vt 0.496861 0.256478
vt 0.821271 1.341994
vt -0.003102 0.283657
vt 0.821271 0.283657
vt 0.829224 0.392613
vt 0.992642 0.997674
vt 0.829224 0.997673
vt 0.939266 -0.897722
vt 0.907737 -0.402665
vt 0.930495 -0.404669
vt 0.929324 0.992024
vt 0.825515 0.000563
vt 0.929324 0.000563
vt 0.900722 1.269223
vt 0.916137 1.899500
vt 0.938554 1.895061
vt 0.924783 -0.083561
vt 0.885745 0.610535
vt 0.908340 0.607122
vt 0.883834 0.770977
vt 0.906480 0.768756
vt 0.882657 0.869744
vt 0.905335 0.868256
vt 0.996932 0.992024
vt 0.955085 0.000563
vt 0.996932 0.000563
vt 0.905572 -0.280176
vt 0.902055 -0.081198
vt 0.992642 -0.001440
vt 0.829224 0.242466
vt 0.829224 -0.001441
vt 0.823156 0.290929
vt 0.621190 1.345326
vt 0.621189 0.256478
vt 0.324456 1.352442
vt 0.324456 0.289043
vt 0.822019 1.352441
vt 0.822019 0.289044
vt 0.877917 1.267753
vt 0.955085 0.992024
vt 0.928319 -0.282316
vt 0.992642 0.242466
vt 0.992642 0.392613
vt 0.992642 0.392613
vt 0.324456 -0.024758
vt 0.822019 -0.024758
vt 0.200985 -0.024758
vt 0.823155 -0.020216
vt 0.621189 -0.020216
vt -0.003102 -0.028651
vt 0.821271 -0.028651
vt -0.004157 -0.020216
vt 0.496861 -0.020216
vt -0.007641 -0.029422
vt 0.817670 -0.029421
vt 0.000411 -0.024758
vt 0.621189 0.290929
vt 0.496861 -0.020216
vt 0.621189 -0.020216
vt 0.324135 0.552194
vt 0.191074 0.790380
vt 0.191074 0.552194
vt 0.324135 0.395100
vt 0.191074 0.156913
vt 0.324135 0.156913
vt 0.191074 0.395100
vt 0.000411 1.352442
vt -0.007641 1.348965
vt -0.004157 1.345325
vt -0.003103 1.341994
vt 0.916462 -0.896269
vt 0.825515 0.992024
vt 0.823156 1.345326
vt 0.992642 0.242466
vt 0.496861 0.290929
vt 0.324135 0.790380
vn -1.0000 0.0000 0.0000
vn 0.0000 0.0000 -1.0000
vn 1.0000 -0.0000 0.0000
vn 0.0000 0.0000 1.0000
vn 0.0000 -1.0000 0.0000
vn -0.5446 -0.8387 0.0000
vn 0.0000 1.0000 0.0000
vn 0.0000 -0.8387 0.5446
vn 0.0000 -0.8387 -0.5446
vn 0.5446 -0.8387 0.0000
vn -0.0308 0.0000 -0.9995
vn -0.0308 0.0000 0.9995
vn -0.0831 -0.9965 0.0000
s off
f 14/1/1 26/2/1 30/3/1
f 4/4/2 27/5/2 26/6/2
f 20/7/3 28/8/3 32/9/3
f 6/10/4 25/11/4 28/12/4
f 19/13/5 5/14/5 1/15/5
f 2/16/6 24/17/6 22/18/6
f 24/19/7 12/20/7 21/21/7
f 6/22/8 9/23/8 2/24/8
f 4/25/9 11/26/9 8/27/9
f 8/27/10 18/28/10 16/29/10
f 16/29/10 21/30/10 20/31/10
f 10/32/7 18/33/7 11/34/7
f 4/25/6 17/35/6 10/36/6
f 7/37/5 13/38/5 3/39/5
f 27/40/3 16/41/3 29/42/3
f 22/43/1 30/3/1 31/44/1
f 2/45/1 31/44/1 25/46/1
f 6/22/10 21/30/10 12/47/10
f 17/48/7 21/21/7 18/33/7
f 14/49/6 24/17/6 17/35/6
f 15/50/5 19/13/5 13/38/5
f 16/41/3 32/9/3 29/42/3
f 15/50/7 33/51/7 23/52/7
f 25/46/1 19/53/1 1/54/1
f 31/44/1 13/55/1 19/53/1
f 7/56/3 29/42/3 15/57/3
f 28/12/4 1/58/4 5/59/4
f 32/9/3 5/60/3 23/61/3
f 26/6/2 7/62/2 3/63/2
f 30/3/1 3/64/1 13/55/1
f 35/65/3 33/66/3 34/67/3
f 32/68/11 33/69/11 36/70/11
f 29/71/12 34/72/12 15/73/12
f 32/68/13 35/74/13 29/71/13
f 14/1/1 4/75/1 26/2/1
f 4/4/2 8/76/2 27/5/2
f 20/7/3 6/77/3 28/8/3
f 6/10/4 2/78/4 25/11/4
f 19/13/5 23/52/5 5/14/5
f 2/16/6 9/79/6 24/17/6
f 24/19/7 9/80/7 12/20/7
f 6/22/8 12/47/8 9/23/8
f 4/25/9 10/36/9 11/26/9
f 8/27/10 11/26/10 18/28/10
f 16/29/10 18/28/10 21/30/10
f 10/32/7 17/48/7 18/33/7
f 4/25/6 14/49/6 17/35/6
f 7/37/5 15/50/5 13/38/5
f 27/40/3 8/81/3 16/41/3
f 22/43/1 14/1/1 30/3/1
f 2/45/1 22/43/1 31/44/1
f 6/22/10 20/31/10 21/30/10
f 17/48/7 24/19/7 21/21/7
f 14/49/6 22/18/6 24/17/6
f 15/50/5 23/52/5 19/13/5
f 16/41/3 20/7/3 32/9/3
f 15/50/7 34/82/7 33/51/7
f 25/46/1 31/44/1 19/53/1
f 31/44/1 30/3/1 13/55/1
f 7/56/3 27/40/3 29/42/3
f 28/12/4 25/11/4 1/58/4
f 32/9/3 28/8/3 5/60/3
f 26/6/2 27/5/2 7/62/2
f 30/3/1 26/2/1 3/64/1
f 35/65/3 36/83/3 33/66/3
f 32/68/11 23/84/11 33/69/11
f 29/71/12 35/74/12 34/72/12
f 32/68/13 36/70/13 35/74/13
