# Blender v2.80 (sub 75) OBJ File: 'nonEuclidianScene.blend'
# www.blender.org
o Table_Root_Cube.078
v -2.411947 0.379860 1.312607
v -2.411947 0.309160 1.312607
v -2.411947 0.379860 -1.312607
v -2.411947 0.309160 -1.312607
v 2.411947 0.379860 1.312607
v 2.411947 0.309160 1.312607
v 2.411947 0.379860 -1.312607
v 2.411947 0.309160 -1.312607
v -2.311947 0.379860 -1.312607
v -2.311947 0.309160 -1.312607
v -2.311947 0.379860 1.312607
v -2.311947 0.309160 1.312607
v 2.311947 0.309160 -1.312607
v 2.311947 0.379860 1.312607
v 2.311947 0.379860 -1.312607
v 2.311947 0.309160 1.312607
v -2.411947 0.379860 -1.212607
v -2.411947 0.309160 -1.212607
v 2.411947 0.379860 -1.212607
v 2.411947 0.309160 -1.212607
v -2.311947 0.309160 -1.212607
v -2.311947 0.379860 -1.212607
v 2.311947 0.309160 -1.212607
v 2.311947 0.379860 -1.212607
v -2.411947 0.379860 1.212607
v 2.411947 0.309160 1.212607
v -2.311947 0.309160 1.212607
v -2.311947 0.379860 1.212607
v 2.311947 0.309160 1.212607
v 2.311947 0.379860 1.212607
v -2.411947 0.309160 1.212607
v 2.411947 0.379860 1.212607
v -2.211947 0.379860 -1.312607
v -2.211947 0.309160 1.312607
v -2.211947 0.309160 -1.312607
v -2.211947 0.379860 1.312607
v -2.211947 0.379860 -1.212607
v -2.211947 0.309160 -1.212607
v -2.211947 0.379860 1.212607
v -2.211947 0.309160 1.212607
v 2.211947 0.309160 -1.312607
v 2.211947 0.379860 1.312607
v 2.211947 0.309160 -1.212607
v 2.211947 0.309160 1.212607
v 2.211947 0.379860 -1.312607
v 2.211947 0.309160 1.312607
v 2.211947 0.379860 -1.212607
v 2.211947 0.379860 1.212607
v -2.411947 0.309160 1.112607
v 2.411947 0.379860 1.112607
v -2.411947 0.379860 1.112607
v 2.411947 0.309160 1.112607
v -2.311947 0.309160 1.112607
v -2.311947 0.379860 1.112607
v 2.311947 0.309160 1.112607
v 2.311947 0.379860 1.112607
v -2.211947 0.309160 1.112607
v -2.211947 0.379860 1.112607
v 2.211947 0.309160 1.112607
v 2.211947 0.379860 1.112607
v -2.411947 0.309160 -1.112607
v 2.411947 0.379860 -1.112607
v -2.411947 0.379860 -1.112607
v 2.411947 0.309160 -1.112607
v -2.311947 0.309160 -1.112607
v -2.311947 0.379860 -1.112607
v 2.311947 0.309160 -1.112607
v 2.311947 0.379860 -1.112607
v -2.211947 0.309160 -1.112607
v -2.211947 0.379860 -1.112607
v 2.211947 0.309160 -1.112607
v 2.211947 0.379860 -1.112607
v 2.211947 -1.550303 -1.212607
v 2.311947 -1.550303 -1.212607
v -2.311947 -1.550303 1.112607
v -2.311947 -1.550303 1.212607
v 2.311947 -1.550303 1.112607
v 2.311947 -1.550303 1.212607
v 2.211947 -1.550303 1.212607
v -2.311947 -1.550303 -1.212607
v -2.211947 -1.550303 -1.212607
v -2.211947 -1.550303 1.212607
v -2.211947 -1.550303 1.112607
v 2.211947 -1.550303 1.112607
v -2.311947 -1.550303 -1.112607
v 2.311947 -1.550303 -1.112607
v -2.211947 -1.550303 -1.112607
v 2.211947 -1.550303 -1.112607
vt -0.734847 0.532001
vt -0.788723 0.493841
vt -0.788756 0.531955
vt 1.664386 0.530856
vt 1.610509 0.492696
vt 1.610476 0.530811
vt 3.079607 0.532062
vt 3.025731 0.493902
vt 3.025698 0.532016
vt 5.478847 0.530852
vt 5.424968 0.492695
vt 5.424937 0.530809
vt 1.594004 1.112741
vt 1.644071 1.062672
vt 1.594003 1.062673
vt -0.719177 -0.212448
vt -0.769240 -0.162385
vt -0.719177 -0.162386
vt -0.669116 -0.212449
vt -0.669114 -0.162386
vt -0.771152 1.112795
vt -0.721078 1.062721
vt -0.771151 1.062721
vt 5.371059 0.492650
vt 5.371027 0.530764
vt -0.680937 0.532048
vt -0.734814 0.493887
vt 3.133517 0.532107
vt 3.079639 0.493948
vt 1.645738 -0.212506
vt 1.595668 -0.162438
vt 1.645736 -0.162436
vt 1.543936 1.112741
vt 1.543935 1.062673
vt 1.556600 0.492650
vt 1.556568 0.530764
vt 1.543935 -0.151596
vt 1.594004 -0.201664
vt 1.543936 -0.201665
vt 1.645736 1.051797
vt 1.595668 1.101866
vt 1.645738 1.101865
vt -0.771150 -0.151635
vt -0.721076 -0.201710
vt -0.771151 -0.201710
vt -0.669113 1.051760
vt -0.719176 1.101823
vt -0.669113 1.101823
vt -0.719175 1.051760
vt -0.769240 1.101823
vt 1.594003 -0.151596
vt 1.644071 -0.201664
vt 1.718294 0.530902
vt 1.664419 0.492743
vt -0.842633 0.493794
vt -0.842666 0.531908
vt -2.096155 0.530833
vt -2.150031 0.492674
vt -2.150064 0.530787
vt 1.594003 1.012605
vt 1.543935 1.012605
vt 1.595668 -0.112369
vt 1.645735 -0.112369
vt -0.721079 1.012648
vt -0.771151 1.012648
vt 0.550610 0.979897
vt 0.487303 2.157043
vt 0.550609 2.157045
vt -0.769240 -0.112323
vt -0.719176 -0.112323
vt 1.644070 1.012605
vt 2.971820 0.493856
vt 2.971788 0.531970
vt 1.545599 -0.162436
vt -0.669114 -0.112324
vt 1.545601 -0.112369
vt -0.671006 1.012647
vt 1.545599 1.051797
vt 1.545598 1.101866
vt -0.721076 -0.151636
vt -0.671002 -0.201710
vt -0.627028 0.532094
vt -0.680905 0.493933
vt -0.721078 1.112795
vt -0.671005 1.062721
vt 3.187458 0.494039
vt 3.187427 0.532153
vt 1.545599 -0.212507
vt 1.595668 -0.212506
vt 3.133549 0.493993
vt 1.595667 1.051797
vt 0.295865 0.979897
vt 0.232559 2.157045
vt 0.295865 2.157045
vt -0.671002 -0.151635
vt -0.626995 0.493981
vt -0.671004 1.112795
vt 1.543934 -0.101528
vt -0.671003 -0.101561
vt 1.545601 1.001728
vt 1.595668 1.001728
vt -0.721076 -0.101562
vt -0.669112 1.001698
vt 1.772236 0.492835
vt 1.772203 0.530948
vt 1.644071 -0.101528
vt 1.594003 -0.101528
vt -0.769238 1.001697
vt -0.719175 1.001697
vt -0.771150 -0.101562
vt 1.645736 1.001728
vt -2.042247 0.530879
vt -2.096123 0.492719
vt 0.613915 0.979897
vt 0.613915 2.157043
vt -0.769238 1.051759
vt 1.644071 -0.151596
vt 1.718327 0.492789
vt 0.677220 0.979897
vt 0.677221 2.157043
vt -2.042214 0.492765
vt 0.429385 0.567358
vt 0.358192 0.496165
vt 0.358192 0.567358
vt 0.429385 0.421550
vt 0.358192 0.350357
vt 0.358192 0.421550
vt 0.429385 0.640260
vt 0.358192 0.569067
vt 0.358192 0.640260
vt 0.429385 0.494454
vt 0.358192 0.423261
vt 0.358192 0.494454
vt 0.359170 -0.198772
vt 0.295865 0.978376
vt 0.359171 0.978376
vt 0.232561 -0.200293
vt 0.295865 -1.377441
vt 0.232559 -1.377441
vt 0.485779 -0.198772
vt 0.422476 0.978376
vt 0.485783 0.978376
vt 0.422475 -0.198772
vt 0.359170 0.979897
vt 0.359171 2.157045
vt 0.740524 0.979897
vt 0.740527 2.157043
vt 0.295865 -0.198772
vt 0.232559 0.978376
vt 0.422476 -0.200293
vt 0.485783 -1.377441
vt 0.422477 -1.377441
vt 0.422475 0.979897
vt 0.422476 2.157043
vt 0.359170 -0.200293
vt 0.359171 -1.377441
vt 0.295866 -0.200293
vt 0.485779 0.979897
vt 0.485783 2.157043
vt 5.478878 0.492739
vt 1.644071 1.112739
vt -0.769241 -0.212448
vt 0.487305 0.979897
vt 0.232560 0.979897
vt 0.429385 0.496165
vt 0.429385 0.350357
vt 0.429385 0.569067
vt 0.429385 0.423261
vt 0.232560 -0.198772
vt 0.485781 -0.200293
vn -1.0000 0.0000 0.0000
vn 0.0000 0.0000 -1.0000
vn 1.0000 0.0000 0.0000
vn 0.0000 0.0000 1.0000
vn 0.0000 1.0000 0.0000
vn 0.0000 -1.0000 0.0000
s off
f 3/1/1 18/2/1 17/3/1
f 7/4/2 13/5/2 15/6/2
f 5/7/3 26/8/3 32/9/3
f 1/10/4 12/11/4 11/12/4
f 14/13/5 32/14/5 30/15/5
f 12/16/6 31/17/6 27/18/6
f 34/19/6 27/18/6 40/20/6
f 1/21/5 28/22/5 25/23/5
f 11/12/4 34/24/4 36/25/4
f 9/26/2 4/27/2 3/1/2
f 14/28/4 6/29/4 5/7/4
f 6/30/6 29/31/6 26/32/6
f 42/33/5 30/15/5 48/34/5
f 15/6/2 41/35/2 45/36/2
f 47/37/5 15/38/5 45/39/5
f 20/40/6 13/41/6 8/42/6
f 17/43/5 9/44/5 3/45/5
f 38/46/6 10/47/6 35/48/6
f 21/49/6 4/50/6 10/47/6
f 24/51/5 7/52/5 15/38/5
f 19/53/3 8/54/3 7/4/3
f 17/3/1 61/55/1 63/56/1
f 25/57/1 2/58/1 1/59/1
f 48/34/5 56/60/5 60/61/5
f 26/32/6 55/62/6 52/63/6
f 25/23/5 54/64/5 51/65/5
f 81/66/2 21/67/2 38/68/2
f 27/18/6 49/69/6 53/70/6
f 30/15/5 50/71/5 56/60/5
f 32/9/3 52/72/3 50/73/3
f 44/74/6 57/75/6 59/76/6
f 28/22/5 58/77/5 54/64/5
f 43/78/6 35/48/6 41/79/6
f 22/80/5 33/81/5 9/44/5
f 33/82/2 10/83/2 9/26/2
f 11/84/5 39/85/5 28/22/5
f 36/25/4 46/86/4 42/87/4
f 46/88/6 40/20/6 44/74/6
f 16/89/6 44/74/6 29/31/6
f 42/87/4 16/90/4 14/28/4
f 23/91/6 41/79/6 13/41/6
f 84/92/1 44/93/1 59/94/1
f 39/85/5 60/61/5 58/77/5
f 37/95/5 45/39/5 33/81/5
f 45/36/2 35/96/2 33/82/2
f 36/97/5 48/34/5 39/85/5
f 58/77/5 72/98/5 70/99/5
f 55/62/6 71/100/6 67/101/6
f 54/64/5 70/99/5 66/102/5
f 59/76/6 69/103/6 71/100/6
f 50/73/3 64/104/3 62/105/3
f 56/60/5 62/106/5 68/107/5
f 53/70/6 61/108/6 65/109/6
f 57/75/6 65/109/6 69/103/6
f 51/65/5 66/102/5 63/110/5
f 52/63/6 67/101/6 64/111/6
f 60/61/5 68/107/5 72/98/5
f 51/112/1 31/113/1 25/57/1
f 72/98/5 24/51/5 47/37/5
f 64/111/6 23/91/6 20/40/6
f 63/110/5 22/80/5 17/43/5
f 87/114/3 38/68/3 69/115/3
f 65/109/6 18/116/6 21/49/6
f 68/107/5 19/117/5 24/51/5
f 62/105/3 20/118/3 19/53/3
f 71/100/6 38/46/6 43/78/6
f 66/102/5 37/95/5 22/80/5
f 85/119/4 69/115/4 65/120/4
f 70/99/5 47/37/5 37/95/5
f 63/56/1 49/121/1 51/112/1
f 82/122/6 75/123/6 83/124/6
f 78/125/6 84/126/6 77/127/6
f 87/128/6 80/129/6 81/130/6
f 86/131/6 73/132/6 74/133/6
f 83/134/2 53/135/2 57/136/2
f 73/137/1 71/138/1 43/139/1
f 76/140/4 40/141/4 27/142/4
f 82/143/3 57/136/3 40/141/3
f 77/144/2 59/94/2 55/145/2
f 80/146/1 65/120/1 21/147/1
f 75/148/1 27/149/1 53/135/1
f 74/150/2 43/151/2 23/152/2
f 78/153/3 55/145/3 29/154/3
f 86/155/3 23/152/3 67/156/3
f 88/157/4 67/156/4 71/138/4
f 79/158/4 29/154/4 44/159/4
f 3/1/1 4/27/1 18/2/1
f 7/4/2 8/54/2 13/5/2
f 5/7/3 6/29/3 26/8/3
f 1/10/4 2/160/4 12/11/4
f 14/13/5 5/161/5 32/14/5
f 12/16/6 2/162/6 31/17/6
f 34/19/6 12/16/6 27/18/6
f 1/21/5 11/84/5 28/22/5
f 11/12/4 12/11/4 34/24/4
f 9/26/2 10/83/2 4/27/2
f 14/28/4 16/90/4 6/29/4
f 6/30/6 16/89/6 29/31/6
f 42/33/5 14/13/5 30/15/5
f 15/6/2 13/5/2 41/35/2
f 47/37/5 24/51/5 15/38/5
f 20/40/6 23/91/6 13/41/6
f 17/43/5 22/80/5 9/44/5
f 38/46/6 21/49/6 10/47/6
f 21/49/6 18/116/6 4/50/6
f 24/51/5 19/117/5 7/52/5
f 19/53/3 20/118/3 8/54/3
f 17/3/1 18/2/1 61/55/1
f 25/57/1 31/113/1 2/58/1
f 48/34/5 30/15/5 56/60/5
f 26/32/6 29/31/6 55/62/6
f 25/23/5 28/22/5 54/64/5
f 81/66/2 80/163/2 21/67/2
f 27/18/6 31/17/6 49/69/6
f 30/15/5 32/14/5 50/71/5
f 32/9/3 26/8/3 52/72/3
f 44/74/6 40/20/6 57/75/6
f 28/22/5 39/85/5 58/77/5
f 43/78/6 38/46/6 35/48/6
f 22/80/5 37/95/5 33/81/5
f 33/82/2 35/96/2 10/83/2
f 11/84/5 36/97/5 39/85/5
f 36/25/4 34/24/4 46/86/4
f 46/88/6 34/19/6 40/20/6
f 16/89/6 46/88/6 44/74/6
f 42/87/4 46/86/4 16/90/4
f 23/91/6 43/78/6 41/79/6
f 84/92/1 79/164/1 44/93/1
f 39/85/5 48/34/5 60/61/5
f 37/95/5 47/37/5 45/39/5
f 45/36/2 41/35/2 35/96/2
f 36/97/5 42/33/5 48/34/5
f 58/77/5 60/61/5 72/98/5
f 55/62/6 59/76/6 71/100/6
f 54/64/5 58/77/5 70/99/5
f 59/76/6 57/75/6 69/103/6
f 50/73/3 52/72/3 64/104/3
f 56/60/5 50/71/5 62/106/5
f 53/70/6 49/69/6 61/108/6
f 57/75/6 53/70/6 65/109/6
f 51/65/5 54/64/5 66/102/5
f 52/63/6 55/62/6 67/101/6
f 60/61/5 56/60/5 68/107/5
f 51/112/1 49/121/1 31/113/1
f 72/98/5 68/107/5 24/51/5
f 64/111/6 67/101/6 23/91/6
f 63/110/5 66/102/5 22/80/5
f 87/114/3 81/66/3 38/68/3
f 65/109/6 61/108/6 18/116/6
f 68/107/5 62/106/5 19/117/5
f 62/105/3 64/104/3 20/118/3
f 71/100/6 69/103/6 38/46/6
f 66/102/5 70/99/5 37/95/5
f 85/119/4 87/114/4 69/115/4
f 70/99/5 72/98/5 47/37/5
f 63/56/1 61/55/1 49/121/1
f 82/122/6 76/165/6 75/123/6
f 78/125/6 79/166/6 84/126/6
f 87/128/6 85/167/6 80/129/6
f 86/131/6 88/168/6 73/132/6
f 83/134/2 75/148/2 53/135/2
f 73/137/1 88/157/1 71/138/1
f 76/140/4 82/143/4 40/141/4
f 82/143/3 83/134/3 57/136/3
f 77/144/2 84/92/2 59/94/2
f 80/146/1 85/119/1 65/120/1
f 75/148/1 76/169/1 27/149/1
f 74/150/2 73/170/2 43/151/2
f 78/153/3 77/144/3 55/145/3
f 86/155/3 74/150/3 23/152/3
f 88/157/4 86/155/4 67/156/4
f 79/158/4 78/153/4 29/154/4
