# Blender v2.80 (sub 75) OBJ File: 'nonEuclidianScene.blend'
# www.blender.org
o Wood_Building_Root_Cube.088
v -1.000000 -1.000000 1.000000
v -1.000000 1.000000 1.000000
v -1.000000 -1.000000 -1.000000
v -1.000000 1.000000 -1.000000
v 1.000000 -1.000000 1.000000
v 1.000000 1.000000 1.000000
v 1.000000 -1.000000 -1.000000
v 1.000000 1.000000 -1.000000
v -1.070000 1.045455 1.070000
v -1.070000 1.045455 -1.070000
v 1.070000 1.045455 -1.070000
v 1.070000 1.045455 1.070000
v 0.000000 -1.000000 -1.000000
v 0.000000 1.000000 -1.000000
v 0.000000 -1.000000 1.000000
v 0.000000 1.000000 1.000000
v 0.000000 1.045455 -1.070000
v 0.000000 1.045455 1.070000
v -1.070000 1.067249 1.070000
v -1.070000 1.067249 -1.070000
v 0.000000 1.588738 -1.070000
v 1.070000 1.067249 -1.070000
v 1.070000 1.067249 1.070000
v 0.000000 1.588738 1.070000
v 1.070000 1.066490 1.070000
v 0.000000 1.569819 1.070000
v 1.070000 1.066490 -1.070000
v -1.070000 1.066490 1.070000
v -1.070000 1.066490 -1.070000
v 0.000000 1.569819 -1.070000
v 1.070000 1.066490 1.115455
v 1.070000 1.067249 1.115455
v 0.000000 1.588738 1.115455
v -1.070000 1.067249 1.115455
v -1.070000 1.066490 1.115455
v 0.000000 1.569819 1.115455
v 0.000000 1.588738 -1.115455
v 1.070000 1.067249 -1.115455
v -1.070000 1.067249 -1.115455
v 1.070000 1.066490 -1.115455
v -1.070000 1.066490 -1.115455
v 0.000000 1.569819 -1.115455
v -1.000000 -1.000000 -0.440737
v -1.000000 1.000000 -0.440737
v 1.000000 -1.000000 -0.440737
v 1.000000 1.000000 -0.440737
v -1.070000 1.045455 -0.471588
v 1.070000 1.045455 -0.471588
v 0.000000 -1.000000 -0.440737
v -1.070000 1.067249 -0.471588
v 1.070000 1.067249 -0.471588
v 0.000000 1.588738 -0.471588
v -1.070000 1.066490 -0.471588
v 1.070000 1.066490 -0.471588
v -1.000000 -1.000000 -0.191524
v 1.000000 1.000000 -0.191524
v 1.070000 1.045455 -0.204931
v 0.000000 -1.000000 -0.191524
v 1.070000 1.067249 -0.204931
v 0.000000 1.588738 -0.204931
v 1.070000 1.066490 -0.204931
v -1.000000 1.000000 -0.191524
v 1.000000 -1.000000 -0.191524
v -1.070000 1.045455 -0.204931
v -1.070000 1.067249 -0.204931
v -1.070000 1.066490 -0.204931
v -1.000000 -0.474168 1.000000
v -1.000000 -0.474168 -1.000000
v 1.000000 -0.474168 -1.000000
v 1.000000 -0.474168 1.000000
v 0.000000 -0.474168 1.000000
v 0.000000 -0.474168 -1.000000
v 1.000000 -0.474168 -0.440737
v -1.000000 -0.474168 -0.440737
v -1.000000 -0.474168 -0.191524
v 1.000000 -0.474168 -0.191524
v -0.611927 -0.474168 -0.440737
v -0.611927 -1.000000 -0.440737
v -0.611927 -1.000000 -0.191524
v -0.611927 -0.474168 -0.191524
vt 0.511557 0.009335
vt 0.708658 0.738078
vt 0.511557 0.738078
vt 0.356088 0.996473
vt 0.000722 0.260170
vt 0.356088 0.260170
vt 0.287847 0.012872
vt 0.711487 0.739891
vt 0.287847 0.739890
vt 0.357993 0.999125
vt 0.007758 0.261115
vt 0.357993 0.261115
vt 0.208745 0.264904
vt 0.279864 0.324591
vt 0.208745 0.324591
vt 0.128528 0.287549
vt 0.059850 0.340370
vt 0.060520 0.295260
vt 0.986824 0.935504
vt 0.913927 0.936669
vt 0.919339 0.936703
vt 0.332732 0.297398
vt 0.229588 0.319537
vt 0.229830 0.284835
vt 0.699009 0.334730
vt 0.563358 0.366418
vt 0.565714 0.332893
vt 0.442937 0.305874
vt 0.410644 0.348379
vt 0.412121 0.303504
vt 0.441031 0.350591
vt 0.128925 0.332830
vt 0.726977 0.495013
vt 0.731897 0.050578
vt 0.730201 0.049724
vt 0.279864 0.384278
vt 0.208745 0.384278
vt 0.708227 0.999125
vt 0.708228 0.261115
vt 0.711453 0.996473
vt 0.711453 0.260170
vt 0.829930 0.044958
vt 0.992889 0.495406
vt 0.831853 0.491914
vt 0.994812 0.942361
vt 0.833775 0.938869
vt 0.878460 0.047233
vt 0.873979 0.047188
vt 0.745489 0.939794
vt 0.732039 0.494921
vt 0.989770 0.490236
vt 0.985128 0.934669
vt 0.977579 0.490457
vt 0.971522 0.046064
vt 0.969837 0.045556
vt 0.342699 0.262944
vt -0.001328 0.268484
vt -0.001330 0.263022
vt 0.686729 0.268328
vt 0.342746 0.399111
vt 0.354629 0.615428
vt 0.016398 0.620947
vt 0.016398 0.615430
vt 0.730064 0.041732
vt 0.873842 0.039195
vt 0.692862 0.620945
vt 0.354630 0.752985
vt 0.986961 0.943495
vt 0.919476 0.944696
vt 0.745502 0.939185
vt 0.734165 0.494883
vt 0.730235 0.050402
vt 0.731905 0.049877
vt 0.747189 0.939697
vt 0.747156 0.938926
vt 0.739448 0.494788
vt 0.984708 0.490328
vt 0.982865 0.490361
vt 0.986789 0.934837
vt 0.969869 0.046316
vt 0.971536 0.045467
vt 0.985121 0.935359
vt 0.889268 0.937238
vt 0.889405 0.945230
vt 0.903914 0.038664
vt 0.971399 0.037473
vt 0.904051 0.046658
vt 0.722586 0.489544
vt 0.800094 0.938139
vt 0.724508 0.936499
vt 0.720663 0.042588
vt 0.798171 0.491183
vt 0.160490 0.324591
vt 0.193871 0.384278
vt 0.160490 0.384278
vt 0.397103 0.347394
vt 0.398388 0.302448
vt 0.893745 0.937044
vt 0.014375 0.300492
vt 0.045402 0.341947
vt 0.012981 0.345485
vt 0.160490 0.264904
vt 0.193871 0.324591
vt 0.000398 0.012872
vt 0.199241 0.739890
vt 0.000398 0.739890
vt 0.423727 0.009335
vt 0.423728 0.738078
vt 0.003799 0.009335
vt 0.003799 0.738078
vt 0.332362 0.342683
vt 0.745626 0.947788
vt 0.898642 0.046853
vt 0.796248 0.044228
vt 0.046295 0.296872
vt 0.193871 0.264904
vt 0.199241 0.012872
vt 0.287847 0.999216
vt 0.199241 0.999216
vt 0.423728 0.998019
vt 0.003799 0.998019
vt 0.193871 0.384278
vt 0.000398 0.999215
vt 0.356088 -0.002467
vt 0.711453 -0.002467
vt 0.357993 -0.002131
vt 0.708228 -0.002131
vt 0.007758 -0.002131
vt 0.711487 0.999216
vt 0.000722 -0.002467
vt 0.708658 0.998019
vt 0.511557 0.998019
vt 0.423728 0.998019
vt 0.511557 0.738078
vt 0.511557 0.998019
vt 0.423728 0.738078
vt 0.377272 0.367649
vt 0.260566 0.260138
vt 0.377272 0.260138
vt 0.365316 0.372649
vt 0.264710 0.257377
vt 0.365316 0.257377
vt 0.708658 0.009335
vt 0.000722 0.996473
vt 0.711487 0.012872
vt 0.007758 0.999125
vt 0.279864 0.264904
vt 0.697203 0.379507
vt 0.990966 0.048451
vt 0.686728 0.262867
vt 0.692862 0.615428
vt 0.208745 0.384278
vt 0.260566 0.367649
vt 0.264710 0.372649
vn -1.0000 0.0000 0.0000
vn 0.0000 0.0000 -1.0000
vn 1.0000 0.0000 0.0000
vn 0.0000 0.0000 1.0000
vn 0.0000 -1.0000 0.0000
vn -0.5446 -0.8387 0.0000
vn 0.0000 -0.8387 0.5446
vn 0.0000 -0.8387 -0.5446
vn 0.5446 -0.8387 0.0000
vn 0.4257 -0.9049 0.0000
vn -0.4381 0.8989 0.0000
vn 0.4381 0.8989 0.0000
vn -0.4257 -0.9049 0.0000
vn -0.0001 0.0000 1.0000
vn 0.0001 0.0000 -1.0000
vn 0.0000 1.0000 0.0000
vn 0.0001 0.0000 1.0000
vn -0.0001 0.0000 -1.0000
s off
f 44/1/1 68/2/1 74/3/1
f 14/4/2 69/5/2 72/6/2
f 56/7/3 70/8/3 76/9/3
f 16/10/4 67/11/4 71/12/4
f 63/13/5 15/14/5 58/15/5
f 2/16/6 64/17/6 62/18/6
f 27/19/3 51/20/3 54/21/3
f 6/22/7 18/23/7 16/24/7
f 4/25/8 17/26/8 14/27/8
f 8/28/9 48/29/9 46/30/9
f 8/28/8 17/26/8 11/31/8
f 2/16/7 18/23/7 9/32/7
f 26/33/10 35/34/10 28/35/10
f 58/15/5 1/36/5 55/37/5
f 6/38/4 71/12/4 70/39/4
f 4/40/2 72/6/2 68/41/2
f 65/42/11 24/43/11 60/44/11
f 60/44/12 23/45/12 59/46/12
f 28/35/1 65/47/1 66/48/1
f 25/49/13 36/50/13 26/33/13
f 30/51/13 40/52/13 27/19/13
f 21/53/11 39/54/11 20/55/11
f 17/56/2 27/57/2 11/58/2
f 17/56/2 29/59/2 30/60/2
f 18/61/4 28/62/4 9/63/4
f 9/64/1 66/48/1 64/65/1
f 18/61/4 25/66/4 26/67/4
f 11/68/3 54/21/3 48/69/3
f 36/50/4 32/70/4 33/71/4
f 36/50/14 34/72/14 35/34/14
f 28/35/1 34/72/1 19/73/1
f 23/74/3 31/75/3 25/49/3
f 24/76/12 32/70/12 23/74/12
f 19/73/11 33/71/11 24/76/11
f 42/77/2 39/54/2 37/78/2
f 42/77/15 38/79/15 40/52/15
f 20/55/1 41/80/1 29/81/1
f 22/82/12 37/78/12 21/53/12
f 29/81/10 42/77/10 30/51/10
f 27/19/3 38/79/3 22/82/3
f 48/69/3 61/83/3 57/84/3
f 47/85/1 29/81/1 10/86/1
f 53/87/1 20/55/1 29/81/1
f 21/88/12 51/89/12 22/90/12
f 20/91/11 52/92/11 21/88/11
f 13/93/5 43/94/5 3/95/5
f 46/30/9 57/96/9 56/97/9
f 54/21/3 59/98/3 61/83/3
f 4/99/6 47/100/6 10/101/6
f 7/102/5 49/103/5 13/93/5
f 8/104/3 73/105/3 69/106/3
f 62/107/1 74/3/1 75/108/1
f 2/109/1 75/108/1 67/110/1
f 61/83/3 23/74/3 25/49/3
f 6/22/9 57/96/9 12/111/9
f 57/84/3 25/49/3 12/112/3
f 64/65/1 53/87/1 47/85/1
f 66/48/1 50/113/1 53/87/1
f 52/92/12 59/46/12 51/89/12
f 50/114/11 60/44/11 52/92/11
f 49/103/5 55/37/5 43/94/5
f 44/115/6 64/17/6 47/100/6
f 45/116/5 58/15/5 49/103/5
f 46/117/3 76/9/3 73/105/3
f 73/105/3 63/118/3 45/119/3
f 67/110/1 55/120/1 1/121/1
f 55/37/16 78/122/16 43/94/16
f 69/106/3 45/119/3 7/123/3
f 68/41/2 13/124/2 3/125/2
f 70/39/4 15/126/4 5/127/4
f 71/12/4 1/128/4 15/126/4
f 76/9/3 5/129/3 63/118/3
f 72/6/2 7/130/2 13/124/2
f 74/3/1 3/131/1 43/132/1
f 79/133/1 77/134/1 78/135/1
f 74/3/5 80/136/5 75/108/5
f 75/137/2 79/138/2 55/139/2
f 43/140/4 77/141/4 74/142/4
f 44/1/1 4/143/1 68/2/1
f 14/4/2 8/144/2 69/5/2
f 56/7/3 6/145/3 70/8/3
f 16/10/4 2/146/4 67/11/4
f 63/13/5 5/147/5 15/14/5
f 2/16/6 9/32/6 64/17/6
f 27/19/3 22/82/3 51/20/3
f 6/22/7 12/111/7 18/23/7
f 4/25/8 10/148/8 17/26/8
f 8/28/9 11/31/9 48/29/9
f 8/28/8 14/27/8 17/26/8
f 2/16/7 16/24/7 18/23/7
f 26/33/10 36/50/10 35/34/10
f 58/15/5 15/14/5 1/36/5
f 6/38/4 16/10/4 71/12/4
f 4/40/2 14/4/2 72/6/2
f 65/42/11 19/149/11 24/43/11
f 60/44/12 24/43/12 23/45/12
f 28/35/1 19/73/1 65/47/1
f 25/49/13 31/75/13 36/50/13
f 30/51/13 42/77/13 40/52/13
f 21/53/11 37/78/11 39/54/11
f 17/56/2 30/60/2 27/57/2
f 17/56/2 10/150/2 29/59/2
f 18/61/4 26/67/4 28/62/4
f 9/64/1 28/35/1 66/48/1
f 18/61/4 12/151/4 25/66/4
f 11/68/3 27/19/3 54/21/3
f 36/50/17 31/75/17 32/70/17
f 36/50/4 33/71/4 34/72/4
f 28/35/1 35/34/1 34/72/1
f 23/74/3 32/70/3 31/75/3
f 24/76/12 33/71/12 32/70/12
f 19/73/11 34/72/11 33/71/11
f 42/77/18 41/80/18 39/54/18
f 42/77/2 37/78/2 38/79/2
f 20/55/1 39/54/1 41/80/1
f 22/82/12 38/79/12 37/78/12
f 29/81/10 41/80/10 42/77/10
f 27/19/3 40/52/3 38/79/3
f 48/69/3 54/21/3 61/83/3
f 47/85/1 53/87/1 29/81/1
f 53/87/1 50/113/1 20/55/1
f 21/88/12 52/92/12 51/89/12
f 20/91/11 50/114/11 52/92/11
f 13/93/5 49/103/5 43/94/5
f 46/30/9 48/29/9 57/96/9
f 54/21/3 51/20/3 59/98/3
f 4/99/6 44/115/6 47/100/6
f 7/102/5 45/116/5 49/103/5
f 8/104/3 46/117/3 73/105/3
f 62/107/1 44/1/1 74/3/1
f 2/109/1 62/107/1 75/108/1
f 61/83/3 59/98/3 23/74/3
f 6/22/9 56/97/9 57/96/9
f 57/84/3 61/83/3 25/49/3
f 64/65/1 66/48/1 53/87/1
f 66/48/1 65/47/1 50/113/1
f 52/92/12 60/44/12 59/46/12
f 50/114/11 65/42/11 60/44/11
f 49/103/5 58/15/5 55/37/5
f 44/115/6 62/18/6 64/17/6
f 45/116/5 63/13/5 58/15/5
f 46/117/3 56/7/3 76/9/3
f 73/105/3 76/9/3 63/118/3
f 67/110/1 75/108/1 55/120/1
f 55/37/16 79/152/16 78/122/16
f 69/106/3 73/105/3 45/119/3
f 68/41/2 72/6/2 13/124/2
f 70/39/4 71/12/4 15/126/4
f 71/12/4 67/11/4 1/128/4
f 76/9/3 70/8/3 5/129/3
f 72/6/2 69/5/2 7/130/2
f 74/3/1 68/2/1 3/131/1
f 79/133/1 80/136/1 77/134/1
f 74/3/5 77/134/5 80/136/5
f 75/137/2 80/153/2 79/138/2
f 43/140/4 78/154/4 77/141/4
